<?xml version="1.0" encoding="UTF-8"?>
<svg width="289px" height="194px" viewBox="0 0 289 194" version="1.1" xmlns="http://www.w3.org/2000/svg" xmlns:xlink="http://www.w3.org/1999/xlink">
    <!-- Generator: Sketch 58 (84663) - https://sketch.com -->
    <title>Group 7</title>
    <desc>Created with Sketch.</desc>
    <defs>
        <polygon id="path-1" points="0.142604858 0.17136 8.39313914 0.17136 8.39313914 8.42270628 0.142604858 8.42270628"></polygon>
    </defs>
    <g id="Versuch-1" stroke="none" stroke-width="1" fill="none" fill-rule="evenodd">
        <g id="10-Kommunikations-Expertenteam" transform="translate(-946.000000, -435.000000)">
            <g id="Group-7" transform="translate(943.000000, 404.000000)">
                <g id="Group-104" transform="translate(147.500000, 138.500000) scale(-1, -1) rotate(40.000000) translate(-147.500000, -138.500000) translate(8.000000, 76.000000)">
                    <path d="M128.925468,116.455584 C130.182948,114.555504 132.743268,114.033864 134.643348,115.291344 C136.543428,116.548824 137.062548,119.109144 135.805068,121.009224 C134.547588,122.909304 131.987268,123.430944 130.089708,122.173464 C128.189628,120.915984 127.667988,118.355664 128.925468,116.455584" id="Fill-1" fill="#00A1CE"></path>
                    <path d="M117.884592,118.052256 C119.028672,116.326056 121.354632,115.852296 123.080832,116.993856 C124.809552,118.137936 125.283312,120.463896 124.139232,122.192616 C122.995152,123.918816 120.669192,124.392576 118.942992,123.248496 C117.214272,122.106936 116.740512,119.778456 117.884592,118.052256" id="Fill-3" fill="#00A1CE"></path>
                    <path d="M106.985592,118.619004 C108.071712,116.978484 110.281752,116.527404 111.922272,117.613524 C113.562792,118.699644 114.013872,120.912204 112.927752,122.552724 C111.841632,124.193244 109.631592,124.641804 107.991072,123.555684 C106.350552,122.469564 105.899472,120.259524 106.985592,118.619004" id="Fill-5" fill="#00A1CE"></path>
                    <path d="M96.365304,118.459236 C97.395984,116.899356 99.497664,116.473476 101.055024,117.504156 C102.614904,118.537356 103.040784,120.636516 102.010104,122.196396 C100.979424,123.753756 98.877744,124.182156 97.320384,123.148956 C95.760504,122.118276 95.334624,120.019116 96.365304,118.459236" id="Fill-7" fill="#00A1CE"></path>
                    <path d="M85.503348,117.409152 C86.483628,115.927392 88.479468,115.521672 89.958708,116.501952 C91.440468,117.482232 91.846188,119.478072 90.865908,120.957312 C89.885628,122.439072 87.889788,122.844792 86.410548,121.864512 C84.928788,120.884232 84.523068,118.890912 85.503348,117.409152" id="Fill-9" fill="#00A1CE"></path>
                    <path d="M74.795868,115.55166 C75.725748,114.1455 77.623308,113.75994 79.029468,114.68982 C80.435628,115.62222 80.821188,117.51726 79.891308,118.92342 C78.958908,120.32958 77.063868,120.71514 75.657708,119.78526 C74.251548,118.85286 73.863468,116.95782 74.795868,115.55166" id="Fill-11" fill="#00A1CE"></path>
                    <path d="M64.32678,113.03292 C65.2113,111.69732 67.01058,111.3294 68.3487,112.21392 C69.6843,113.09844 70.05222,114.90024 69.16518,116.23584 C68.28066,117.57144 66.48138,117.93936 65.14578,117.05484 C63.80766,116.17032 63.44226,114.36852 64.32678,113.03292" id="Fill-13" fill="#00A1CE"></path>
                    <path d="M53.97084,109.500384 C54.81,108.230304 56.52108,107.882544 57.79116,108.724224 C59.06124,109.563384 59.409,111.274464 58.56732,112.544544 C57.72816,113.812104 56.01708,114.162384 54.747,113.320704 C53.47944,112.481544 53.13168,110.770464 53.97084,109.500384" id="Fill-15" fill="#00A1CE"></path>
                    <path d="M43.957872,105.287196 C44.756712,104.080116 46.382112,103.749996 47.586672,104.548836 C48.793752,105.347676 49.123872,106.973076 48.325032,108.177636 C47.526192,109.384716 45.903312,109.714836 44.696232,108.915996 C43.489152,108.117156 43.159032,106.494276 43.957872,105.287196" id="Fill-17" fill="#00A1CE"></path>
                    <path d="M34.638408,100.695756 C35.366688,99.531516 36.901368,99.176196 38.065608,99.904476 C39.232368,100.632756 39.587688,102.167436 38.859408,103.331676 C38.131128,104.498436 36.593928,104.851236 35.429688,104.122956 C34.265448,103.397196 33.910128,101.859996 34.638408,100.695756" id="Fill-19" fill="#00A1CE"></path>
                    <path d="M25.578252,95.21148 C26.271252,94.1052 27.727812,93.76752 28.834092,94.46052 C29.942892,95.151 30.278052,96.61008 29.587572,97.71636 C28.894572,98.82264 27.438012,99.16032 26.329212,98.46732 C25.222932,97.77684 24.885252,96.31776 25.578252,95.21148" id="Fill-21" fill="#00A1CE"></path>
                    <path d="M16.714656,89.076036 C17.372376,88.025196 18.758376,87.705156 19.809216,88.362876 C20.860056,89.018076 21.180096,90.404076 20.522376,91.454916 C19.867176,92.508276 18.481176,92.828316 17.427816,92.170596 C16.376976,91.512876 16.056936,90.126876 16.714656,89.076036" id="Fill-23" fill="#00A1CE"></path>
                    <path d="M8.121204,81.94368 C8.746164,80.94576 10.061604,80.64084 11.059524,81.2658 C12.059964,81.88824 12.362364,83.2062 11.739924,84.20412 C11.114964,85.20456 9.799524,85.50696 8.799084,84.882 C7.801164,84.25956 7.496244,82.9416 8.121204,81.94368" id="Fill-25" fill="#00A1CE"></path>
                    <path d="M0.308196,74.576964 C0.900396,73.626924 2.150316,73.339644 3.100356,73.931844 C4.050396,74.526564 4.337676,75.776484 3.745476,76.724004 C3.153276,77.674044 1.900836,77.961324 0.953316,77.369124 C0.003276,76.776924 -0.284004,75.527004 0.308196,74.576964" id="Fill-27" fill="#00A1CE"></path>
                    <path d="M245.099484,27.626592 C244.091484,25.582872 244.930644,23.110752 246.974364,22.102752 C249.018084,21.094752 251.492724,21.933912 252.498204,23.977632 C253.506204,26.021352 252.667044,28.493472 250.623324,29.501472 C248.579604,30.509472 246.107484,29.670312 245.099484,27.626592" id="Fill-29" fill="#00A1CE"></path>
                    <path d="M240.706368,38.081064 C239.789088,36.223824 240.552648,33.975984 242.409888,33.058704 C244.269648,32.143944 246.517488,32.904984 247.432248,34.764744 C248.349528,36.621984 247.585968,38.869824 245.728728,39.787104 C243.871488,40.701864 241.621128,39.938304 240.706368,38.081064" id="Fill-31" fill="#00A1CE"></path>
                    <path d="M235.6767,47.75358 C234.8073,45.98958 235.53054,43.85262 237.29706,42.98322 C239.06106,42.1113 241.19802,42.83706 242.06742,44.60106 C242.93682,46.36758 242.21358,48.50202 240.44706,49.37394 C238.68306,50.24334 236.5461,49.51758 235.6767,47.75358" id="Fill-33" fill="#00A1CE"></path>
                    <path d="M230.058612,56.722008 C229.232052,55.046208 229.920012,53.015088 231.598332,52.188528 C233.274132,51.361968 235.302732,52.052448 236.129292,53.728248 C236.955852,55.404048 236.267892,57.432648 234.592092,58.261728 C232.913772,59.088288 230.885172,58.397808 230.058612,56.722008" id="Fill-35" fill="#00A1CE"></path>
                    <path d="M223.690068,65.586108 C222.903828,63.993468 223.559028,62.065668 225.151668,61.279428 C226.744308,60.495708 228.672108,61.148388 229.458348,62.741028 C230.242068,64.333668 229.589388,66.261468 227.996748,67.047708 C226.404108,67.833948 224.476308,67.178748 223.690068,65.586108" id="Fill-37" fill="#00A1CE"></path>
                    <path d="M216.63684,73.847424 C215.89092,72.335424 216.51336,70.503384 218.02536,69.757464 C219.53736,69.011544 221.3694,69.631464 222.11532,71.145984 C222.86124,72.657984 222.24132,74.490024 220.7268,75.235944 C219.2148,75.981864 217.38276,75.359424 216.63684,73.847424" id="Fill-39" fill="#00A1CE"></path>
                    <path d="M208.980324,81.422544 C208.272204,79.986144 208.861884,78.244824 210.298284,77.536704 C211.737204,76.828584 213.476004,77.418264 214.186644,78.854664 C214.894764,80.293584 214.302564,82.032384 212.866164,82.740504 C211.429764,83.451144 209.688444,82.858944 208.980324,81.422544" id="Fill-41" fill="#00A1CE"></path>
                    <path d="M200.7936,88.668048 C200.12076,87.302208 200.6802,85.649088 202.04604,84.976248 C203.41188,84.303408 205.065,84.862848 205.73784,86.228688 C206.41068,87.594528 205.85124,89.247648 204.4854,89.920488 C203.11956,90.595848 201.46644,90.033888 200.7936,88.668048" id="Fill-43" fill="#00A1CE"></path>
                    <path d="M192.071628,95.157804 C191.431548,93.860004 191.965788,92.290044 193.261068,91.649964 C194.558868,91.009884 196.128828,91.544124 196.768908,92.841924 C197.408988,94.137204 196.877268,95.709684 195.579468,96.347244 C194.281668,96.987324 192.711708,96.455604 192.071628,95.157804" id="Fill-45" fill="#00A1CE"></path>
                    <path d="M183.361248,100.847712 C182.721168,99.630552 183.187368,98.126112 184.404528,97.488552 C185.621688,96.848472 187.126128,97.314672 187.763688,98.531832 C188.403768,99.746472 187.937568,101.250912 186.720408,101.890992 C185.505768,102.531072 184.001328,102.064872 183.361248,100.847712" id="Fill-47" fill="#00A1CE"></path>
                    <path d="M173.948292,105.803796 C173.340972,104.649636 173.784492,103.218276 174.938652,102.610956 C176.095332,102.003636 177.524172,102.447156 178.131492,103.603836 C178.738812,104.757996 178.295292,106.186836 177.141132,106.794156 C175.984452,107.403996 174.555612,106.957956 173.948292,105.803796" id="Fill-49" fill="#00A1CE"></path>
                    <path d="M164.182788,110.369784 C163.605708,109.271064 164.026548,107.915304 165.125268,107.338224 C166.221468,106.758624 167.579748,107.181984 168.156828,108.278184 C168.733908,109.376904 168.313068,110.735184 167.214348,111.312264 C166.118148,111.889344 164.759868,111.468504 164.182788,110.369784" id="Fill-51" fill="#00A1CE"></path>
                    <path d="M153.692532,114.200184 C153.143172,113.156904 153.543852,111.866664 154.587132,111.319824 C155.630412,110.770464 156.920652,111.171144 157.467492,112.214424 C158.016852,113.255184 157.616172,114.545424 156.572892,115.094784 C155.532132,115.644144 154.241892,115.243464 153.692532,114.200184" id="Fill-53" fill="#00A1CE"></path>
                    <g id="Group-57" transform="translate(269.640000, 0.668388)">
                        <mask id="mask-2" fill="white">
                            <use xlink:href="#path-1"></use>
                        </mask>
                        <g id="Clip-56"></g>
                        <path d="M0.930132,6.721848 C-0.407988,4.879728 0.000252,2.299248 1.842372,0.958608 C3.687012,-0.379512 6.264972,0.028728 7.605612,1.873368 C8.943732,3.715488 8.535492,6.295968 6.693372,7.634088 C4.848732,8.974728 2.268252,8.563968 0.930132,6.721848" id="Fill-55" fill="#00A1CE" mask="url(#mask-2)"></path>
                    </g>
                    <path d="M268.199316,18.291252 C266.982156,16.615452 267.352596,14.269332 269.028396,13.052172 C270.704196,11.835012 273.050316,12.207972 274.267476,13.883772 C275.484636,15.557052 275.114196,17.903172 273.438396,19.120332 C271.762596,20.337492 269.416476,19.967052 268.199316,18.291252" id="Fill-58" fill="#00A1CE"></path>
                    <path d="M264.912984,28.698348 C263.756304,27.105708 264.109104,24.878028 265.701744,23.721348 C267.291864,22.564668 269.522064,22.917468 270.678744,24.510108 C271.832904,26.102748 271.480104,28.330428 269.889984,29.487108 C268.297344,30.643788 266.069664,30.290988 264.912984,28.698348" id="Fill-60" fill="#00A1CE"></path>
                    <path d="M261.04428,38.590104 C259.94556,37.078104 260.28072,34.961304 261.79272,33.862584 C263.30472,32.763864 265.42152,33.099024 266.52024,34.611024 C267.61896,36.123024 267.2838,38.239824 265.7718,39.338544 C264.2598,40.437264 262.143,40.102104 261.04428,38.590104" id="Fill-62" fill="#00A1CE"></path>
                    <path d="M256.256532,48.396432 C255.213252,46.960032 255.530772,44.949072 256.967172,43.905792 C258.403572,42.862512 260.414532,43.180032 261.460332,44.616432 C262.503612,46.052832 262.183572,48.063792 260.747172,49.107072 C259.310772,50.150352 257.299812,49.832832 256.256532,48.396432" id="Fill-64" fill="#00A1CE"></path>
                    <path d="M250.766964,57.775368 C249.776604,56.409528 250.079004,54.499368 251.442324,53.509008 C252.808164,52.516128 254.718324,52.818528 255.708684,54.184368 C256.701564,55.550208 256.399164,57.460368 255.033324,58.450728 C253.670004,59.443608 251.757324,59.141208 250.766964,57.775368" id="Fill-66" fill="#00A1CE"></path>
                    <path d="M244.741392,66.699444 C243.798912,65.401644 244.086192,63.587244 245.383992,62.647284 C246.679272,61.704804 248.493672,61.992084 249.436152,63.287364 C250.378632,64.585164 250.091352,66.399564 248.793552,67.342044 C247.498272,68.284524 245.683872,67.997244 244.741392,66.699444" id="Fill-68" fill="#00A1CE"></path>
                    <path d="M237.805848,75.162612 C236.911248,73.930332 237.183408,72.206652 238.415688,71.312052 C239.647968,70.417452 241.371648,70.689612 242.266248,71.921892 C243.160848,73.154172 242.888688,74.877852 241.656408,75.772452 C240.424128,76.667052 238.700448,76.394892 237.805848,75.162612" id="Fill-70" fill="#00A1CE"></path>
                    <path d="M230.352696,83.065836 C229.503456,81.896556 229.763016,80.258556 230.932296,79.406796 C232.101576,78.557556 233.739576,78.817116 234.591336,79.986396 C235.440576,81.158196 235.181016,82.796196 234.011736,83.645436 C232.839936,84.494676 231.201936,84.235116 230.352696,83.065836" id="Fill-72" fill="#00A1CE"></path>
                    <path d="M222.788412,90.187104 C221.951772,89.095944 222.158412,87.536064 223.247052,86.699424 C224.338212,85.862784 225.900612,86.066904 226.737252,87.158064 C227.571372,88.249224 227.367252,89.809104 226.276092,90.645744 C225.187452,91.482384 223.625052,91.278264 222.788412,90.187104" id="Fill-74" fill="#00A1CE"></path>
                    <path d="M214.478712,96.752964 C213.684912,95.717244 213.878952,94.232964 214.914672,93.439164 C215.950392,92.645364 217.434672,92.839404 218.228472,93.875124 C219.024792,94.910844 218.828232,96.395124 217.792512,97.188924 C216.756792,97.982724 215.272512,97.788684 214.478712,96.752964" id="Fill-76" fill="#00A1CE"></path>
                    <path d="M205.627464,102.906552 C204.871464,101.923752 205.057944,100.512552 206.040744,99.759072 C207.026064,99.003072 208.434744,99.189552 209.190744,100.172352 C209.944224,101.157672 209.760264,102.566352 208.774944,103.319832 C207.792144,104.075832 206.383464,103.889352 205.627464,102.906552" id="Fill-78" fill="#00A1CE"></path>
                    <path d="M195.93756,108.458112 C195.21936,107.523192 195.39576,106.185072 196.33068,105.466872 C197.2656,104.751192 198.60624,104.925072 199.32192,105.859992 C200.04012,106.794912 199.86372,108.135552 198.9288,108.851232 C197.99388,109.569432 196.65576,109.393032 195.93756,108.458112" id="Fill-80" fill="#00A1CE"></path>
                    <path d="M186.30108,113.196216 C185.62068,112.309176 185.787,111.036576 186.67404,110.353656 C187.5636,109.673256 188.8362,109.842096 189.5166,110.729136 C190.197,111.616176 190.03068,112.888776 189.14364,113.569176 C188.25408,114.252096 186.98148,114.083256 186.30108,113.196216" id="Fill-82" fill="#00A1CE"></path>
                    <path d="M179.804016,82.6833 C179.625096,80.91678 180.915336,79.33926 182.681856,79.16286 C184.448376,78.98394 186.023376,80.27166 186.202296,82.03818 C186.381216,83.8047 185.090976,85.38222 183.324456,85.56114 C181.557936,85.73754 179.982936,84.44982 179.804016,82.6833" id="Fill-84" fill="#00A1CE"></path>
                    <path d="M170.304372,87.95136 C170.135532,86.27304 171.357732,84.77616 173.038572,84.60732 C174.716892,84.43596 176.213772,85.66068 176.382612,87.339 C176.551452,89.01732 175.329252,90.51672 173.648412,90.68556 C171.970092,90.8544 170.473212,89.62968 170.304372,87.95136" id="Fill-86" fill="#00A1CE"></path>
                    <path d="M160.479648,92.36514 C160.318368,90.76998 161.482608,89.3487 163.075248,89.18742 C164.670408,89.02614 166.094208,90.18786 166.252968,91.78302 C166.414248,93.37818 165.252528,94.80198 163.657368,94.96074 C162.062208,95.12202 160.640928,93.9603 160.479648,92.36514" id="Fill-88" fill="#00A1CE"></path>
                    <path d="M150.2739,96.285 C150.12018,94.77048 151.22646,93.41724 152.74098,93.26604 C154.2555,93.11232 155.60622,94.2186 155.75994,95.73312 C155.91114,97.24764 154.80738,98.59836 153.29286,98.75208 C151.77834,98.90328 150.42762,97.79952 150.2739,96.285" id="Fill-90" fill="#00A1CE"></path>
                    <path d="M139.831524,99.309504 C139.687884,97.870584 140.736204,96.585384 142.175124,96.441744 C143.614044,96.295584 144.899244,97.346424 145.042884,98.785344 C145.189044,100.224264 144.138204,101.506944 142.699284,101.653104 C141.260364,101.796744 139.975164,100.748424 139.831524,99.309504" id="Fill-92" fill="#00A1CE"></path>
                    <path d="M129.680208,101.58834 C129.506328,100.22502 130.471488,98.98014 131.834808,98.80626 C133.198128,98.63238 134.443008,99.59754 134.616888,100.96086 C134.790768,102.32418 133.825608,103.56906 132.462288,103.74294 C131.098968,103.91682 129.854088,102.95166 129.680208,101.58834" id="Fill-94" fill="#00A1CE"></path>
                    <path d="M119.127456,102.934272 C118.963656,101.638992 119.878416,100.457112 121.173696,100.290792 C122.468976,100.126992 123.650856,101.041752 123.817176,102.337032 C123.980976,103.632312 123.066216,104.816712 121.770936,104.980512 C120.475656,105.144312 119.291256,104.229552 119.127456,102.934272" id="Fill-96" fill="#00A1CE"></path>
                    <path d="M108.38142,103.791072 C108.22518,102.561312 109.09458,101.437392 110.32434,101.281152 C111.55662,101.124912 112.68054,101.994312 112.83678,103.224072 C112.99302,104.453832 112.12362,105.577752 110.89134,105.733992 C109.66158,105.892752 108.53766,105.020832 108.38142,103.791072" id="Fill-98" fill="#00A1CE"></path>
                    <path d="M97.214292,103.704888 C97.065612,102.535608 97.892172,101.467128 99.061452,101.318448 C100.230732,101.169768 101.296692,101.998848 101.445372,103.165608 C101.594052,104.334888 100.767492,105.403368 99.600732,105.552048 C98.431452,105.700728 97.362972,104.874168 97.214292,103.704888" id="Fill-100" fill="#00A1CE"></path>
                    <path d="M86.503032,102.943344 C86.361912,101.832024 87.148152,100.818984 88.256952,100.677864 C89.368272,100.536744 90.381312,101.320464 90.522432,102.431784 C90.666072,103.543104 89.879832,104.556144 88.768512,104.697264 C87.659712,104.838384 86.644152,104.054664 86.503032,102.943344" id="Fill-102" fill="#00A1CE"></path>
                </g>
                <g id="Group" transform="translate(36.000000, 31.000000)">
                    <path d="M128.8,-1.49213975e-12 C142.496662,-1.49317642e-12 153.6,11.1033382 153.6,24.8 L153.6,24.8 L153.6,40.799 L231.2,40.8 C244.896662,40.8 256,51.9033382 256,65.6 L256,128 C256,141.696662 244.896662,152.8 231.2,152.8 L203.28,152.8 L206.092474,180.269727 C206.195284,181.273994 205.914404,182.276947 205.311439,183.079545 L205.166604,183.261113 C203.78706,184.891212 201.382604,185.141893 199.700603,183.867687 L199.529252,183.730427 L162.981,152.8 L134.4,152.8 C120.703338,152.8 109.6,141.696662 109.6,128 L109.6,111.999 L100.219,112 L63.6707483,142.930427 L63.499397,143.067687 C61.8173957,144.341893 59.4129397,144.091212 58.0333957,142.461113 L58.0333957,142.461113 L57.8885606,142.279545 C57.285596,141.476947 57.0047159,140.473994 57.1075264,139.469727 L57.1075264,139.469727 L59.92,112 L32,112 C18.3033382,112 7.2,100.896662 7.2,87.2 L7.2,87.2 L7.2,24.8 C7.2,11.1033382 18.3033382,-1.49465578e-12 32,-1.49213975e-12 L32,-1.49213975e-12 Z" id="Combined-Shape" fill="#66C7E6" opacity="0.5"></path>
                    <g id="Group-6" transform="translate(0.000000, 7.200000)" stroke="#005198" stroke-width="3.2">
                        <path d="M224,40.8 C237.696662,40.8 248.8,51.9033382 248.8,65.6 L248.8,128 C248.8,141.696662 237.696662,152.8 224,152.8 L196.08,152.8 L198.892474,180.269727 C198.995284,181.273994 198.714404,182.276947 198.111439,183.079545 L197.966604,183.261113 C196.53949,184.947422 194.015561,185.157541 192.329252,183.730427 L192.329252,183.730427 L155.781,152.8 L127.2,152.8 C113.503338,152.8 102.4,141.696662 102.4,128 L102.4,65.6 C102.4,51.9033382 113.503338,40.8 127.2,40.8 L224,40.8 Z" id="Combined-Shape-Copy-4"></path>
                        <path d="M121.6,-6.96331881e-13 C135.296662,-6.97368559e-13 146.4,11.1033382 146.4,24.8 L146.4,24.8 L146.4,40.799 L127.2,40.8 C113.640305,40.8 102.622326,51.6823818 102.403322,65.1898867 L102.4,65.6 L102.4,111.999 L93.019,112 L56.4707483,142.930427 L56.299397,143.067687 C54.6173957,144.341893 52.2129397,144.091212 50.8333957,142.461113 L50.8333957,142.461113 L50.6885606,142.279545 C50.085596,141.476947 49.8047159,140.473994 49.9075264,139.469727 L49.9075264,139.469727 L52.72,112 L24.8,112 C11.1033382,112 -1.42108547e-14,100.896662 -1.42108547e-14,87.2 L-1.42108547e-14,87.2 L-1.42108547e-14,24.8 C-1.42108547e-14,11.1033382 11.1033382,-6.98847917e-13 24.8,-6.96331881e-13 L24.8,-6.96331881e-13 Z" id="Combined-Shape"></path>
                    </g>
                </g>
            </g>
        </g>
    </g>
</svg>