<?xml version="1.0" encoding="UTF-8"?>
<svg width="252px" height="197px" viewBox="0 0 252 197" version="1.1" xmlns="http://www.w3.org/2000/svg" xmlns:xlink="http://www.w3.org/1999/xlink">
    <!-- Generator: Sketch 58 (84663) - https://sketch.com -->
    <title>Group</title>
    <desc>Created with Sketch.</desc>
    <g id="Versuch-1" stroke="none" stroke-width="1" fill="none" fill-rule="evenodd">
        <g id="05-Antworten/Lösungen" transform="translate(-340.000000, -224.000000)" fill-rule="nonzero">
            <g id="Group" transform="translate(320.000000, 217.000000)">
                <path d="M88.3872,7.6032 C103.593676,7.6032 116.265549,12.4607514 126.4032,22.176 C136.540851,31.8912486 141.6096,44.1407261 141.6096,58.9248 C141.6096,66.9504401 140.236814,75.1871578 137.4912,83.6352 L137.15893,84.6427281 C134.369798,92.9822749 129.728597,104.051131 123.2352,117.8496 L82.6848,200.8512 L31.3632,200.8512 L57.9744,102.0096 C42.3455219,91.0271451 34.5312,76.4544908 34.5312,58.2912 C34.5312,43.9295282 39.7055483,31.8912486 50.0544,22.176 C60.4032517,12.4607514 73.180724,7.6032 88.3872,7.6032 Z M218.2752,7.6032 C233.481676,7.6032 246.153549,12.4607514 256.2912,22.176 C266.428851,31.8912486 271.4976,44.1407261 271.4976,58.9248 C271.4976,66.9504401 270.124814,75.1871578 267.3792,83.6352 L267.04693,84.6427281 C264.257798,92.9822749 259.616597,104.051131 253.1232,117.8496 L212.5728,200.8512 L161.2512,200.8512 L187.8624,102.0096 C172.233522,91.0271451 164.4192,76.4544908 164.4192,58.2912 C164.4192,43.9295282 169.593548,31.8912486 179.9424,22.176 C190.291252,12.4607514 203.068724,7.6032 218.2752,7.6032 Z" id="„" fill="#66C7E6" opacity="0.5" transform="translate(151.430400, 104.227200) rotate(-360.000000) translate(-151.430400, -104.227200) "></path>
                <path d="M79.2,8.712 C94.406476,8.712 107.078349,13.5695514 117.216,23.2848 C127.353651,33.0000486 132.4224,45.2495261 132.4224,60.0336 C132.4224,68.0592401 131.049614,76.2959578 128.304,84.744 L128.012814,85.6284823 C125.22828,93.9820883 120.573384,105.091958 114.048,118.9584 L73.4976,201.96 L22.176,201.96 L48.7872,103.1184 C33.1583219,92.1359451 25.344,77.5632908 25.344,59.4 C25.344,45.0383282 30.5183483,33.0000486 40.8672,23.2848 C51.2160517,13.5695514 63.993524,8.712 79.2,8.712 Z M209.088,8.712 C224.294476,8.712 236.966349,13.5695514 247.104,23.2848 C257.241651,33.0000486 262.3104,45.2495261 262.3104,60.0336 C262.3104,68.0592401 260.937614,76.2959578 258.192,84.744 L257.900814,85.6284823 C255.11628,93.9820883 250.461384,105.091958 243.936,118.9584 L203.3856,201.96 L152.064,201.96 L178.6752,103.1184 C163.046322,92.1359451 155.232,77.5632908 155.232,59.4 C155.232,45.0383282 160.406348,33.0000486 170.7552,23.2848 C181.104052,13.5695514 193.881524,8.712 209.088,8.712 Z" id="„" stroke="#00559D" stroke-width="3.168" stroke-linejoin="round" transform="translate(142.243200, 105.336000) rotate(-360.000000) translate(-142.243200, -105.336000) "></path>
            </g>
        </g>
    </g>
</svg>