<?xml version="1.0" encoding="UTF-8"?>
<svg width="217px" height="220px" viewBox="0 0 217 220" version="1.1" xmlns="http://www.w3.org/2000/svg" xmlns:xlink="http://www.w3.org/1999/xlink">
    <!-- Generator: Sketch 58 (84663) - https://sketch.com -->
    <title>Group 6</title>
    <desc>Created with Sketch.</desc>
    <defs>
        <polygon id="path-1" points="0.142604858 0.17136 8.39313914 0.17136 8.39313914 8.42270628 0.142604858 8.42270628"></polygon>
    </defs>
    <g id="Versuch-1" stroke="none" stroke-width="1" fill="none" fill-rule="evenodd">
        <g id="09-Juristen-Expertenteam" transform="translate(-1023.000000, -460.000000)">
            <g id="Group-6" transform="translate(1020.000000, 450.000000)">
                <g id="Group-104" transform="translate(113.500000, 121.000000) scale(-1, 1) rotate(30.000000) translate(-113.500000, -121.000000) translate(17.000000, 63.000000)">
                    <path d="M159.099484,27.626592 C158.091484,25.582872 158.930644,23.110752 160.974364,22.102752 C163.018084,21.094752 165.492724,21.933912 166.498204,23.977632 C167.506204,26.021352 166.667044,28.493472 164.623324,29.501472 C162.579604,30.509472 160.107484,29.670312 159.099484,27.626592" id="Fill-29" fill="#00A1CE"></path>
                    <path d="M154.706368,38.081064 C153.789088,36.223824 154.552648,33.975984 156.409888,33.058704 C158.269648,32.143944 160.517488,32.904984 161.432248,34.764744 C162.349528,36.621984 161.585968,38.869824 159.728728,39.787104 C157.871488,40.701864 155.621128,39.938304 154.706368,38.081064" id="Fill-31" fill="#00A1CE"></path>
                    <path d="M149.6767,47.75358 C148.8073,45.98958 149.53054,43.85262 151.29706,42.98322 C153.06106,42.1113 155.19802,42.83706 156.06742,44.60106 C156.93682,46.36758 156.21358,48.50202 154.44706,49.37394 C152.68306,50.24334 150.5461,49.51758 149.6767,47.75358" id="Fill-33" fill="#00A1CE"></path>
                    <path d="M144.058612,56.722008 C143.232052,55.046208 143.920012,53.015088 145.598332,52.188528 C147.274132,51.361968 149.302732,52.052448 150.129292,53.728248 C150.955852,55.404048 150.267892,57.432648 148.592092,58.261728 C146.913772,59.088288 144.885172,58.397808 144.058612,56.722008" id="Fill-35" fill="#00A1CE"></path>
                    <path d="M137.690068,65.586108 C136.903828,63.993468 137.559028,62.065668 139.151668,61.279428 C140.744308,60.495708 142.672108,61.148388 143.458348,62.741028 C144.242068,64.333668 143.589388,66.261468 141.996748,67.047708 C140.404108,67.833948 138.476308,67.178748 137.690068,65.586108" id="Fill-37" fill="#00A1CE"></path>
                    <path d="M130.63684,73.847424 C129.89092,72.335424 130.51336,70.503384 132.02536,69.757464 C133.53736,69.011544 135.3694,69.631464 136.11532,71.145984 C136.86124,72.657984 136.24132,74.490024 134.7268,75.235944 C133.2148,75.981864 131.38276,75.359424 130.63684,73.847424" id="Fill-39" fill="#00A1CE"></path>
                    <path d="M122.980324,81.422544 C122.272204,79.986144 122.861884,78.244824 124.298284,77.536704 C125.737204,76.828584 127.476004,77.418264 128.186644,78.854664 C128.894764,80.293584 128.302564,82.032384 126.866164,82.740504 C125.429764,83.451144 123.688444,82.858944 122.980324,81.422544" id="Fill-41" fill="#00A1CE"></path>
                    <path d="M114.7936,88.668048 C114.12076,87.302208 114.6802,85.649088 116.04604,84.976248 C117.41188,84.303408 119.065,84.862848 119.73784,86.228688 C120.41068,87.594528 119.85124,89.247648 118.4854,89.920488 C117.11956,90.595848 115.46644,90.033888 114.7936,88.668048" id="Fill-43" fill="#00A1CE"></path>
                    <path d="M106.071628,95.157804 C105.431548,93.860004 105.965788,92.290044 107.261068,91.649964 C108.558868,91.009884 110.128828,91.544124 110.768908,92.841924 C111.408988,94.137204 110.877268,95.709684 109.579468,96.347244 C108.281668,96.987324 106.711708,96.455604 106.071628,95.157804" id="Fill-45" fill="#00A1CE"></path>
                    <path d="M97.361248,100.847712 C96.721168,99.630552 97.187368,98.126112 98.404528,97.488552 C99.621688,96.848472 101.126128,97.314672 101.763688,98.531832 C102.403768,99.746472 101.937568,101.250912 100.720408,101.890992 C99.505768,102.531072 98.001328,102.064872 97.361248,100.847712" id="Fill-47" fill="#00A1CE"></path>
                    <path d="M87.948292,105.803796 C87.340972,104.649636 87.784492,103.218276 88.938652,102.610956 C90.095332,102.003636 91.524172,102.447156 92.131492,103.603836 C92.738812,104.757996 92.295292,106.186836 91.141132,106.794156 C89.984452,107.403996 88.555612,106.957956 87.948292,105.803796" id="Fill-49" fill="#00A1CE"></path>
                    <path d="M78.182788,110.369784 C77.605708,109.271064 78.026548,107.915304 79.125268,107.338224 C80.221468,106.758624 81.579748,107.181984 82.156828,108.278184 C82.733908,109.376904 82.313068,110.735184 81.214348,111.312264 C80.118148,111.889344 78.759868,111.468504 78.182788,110.369784" id="Fill-51" fill="#00A1CE"></path>
                    <path d="M67.692532,114.200184 C67.143172,113.156904 67.543852,111.866664 68.587132,111.319824 C69.630412,110.770464 70.920652,111.171144 71.467492,112.214424 C72.016852,113.255184 71.616172,114.545424 70.572892,115.094784 C69.532132,115.644144 68.241892,115.243464 67.692532,114.200184" id="Fill-53" fill="#00A1CE"></path>
                    <g id="Group-57" transform="translate(183.640000, 0.668388)">
                        <mask id="mask-2" fill="white">
                            <use xlink:href="#path-1"></use>
                        </mask>
                        <g id="Clip-56"></g>
                        <path d="M0.930132,6.721848 C-0.407988,4.879728 0.000252,2.299248 1.842372,0.958608 C3.687012,-0.379512 6.264972,0.028728 7.605612,1.873368 C8.943732,3.715488 8.535492,6.295968 6.693372,7.634088 C4.848732,8.974728 2.268252,8.563968 0.930132,6.721848" id="Fill-55" fill="#00A1CE" mask="url(#mask-2)"></path>
                    </g>
                    <path d="M182.199316,18.291252 C180.982156,16.615452 181.352596,14.269332 183.028396,13.052172 C184.704196,11.835012 187.050316,12.207972 188.267476,13.883772 C189.484636,15.557052 189.114196,17.903172 187.438396,19.120332 C185.762596,20.337492 183.416476,19.967052 182.199316,18.291252" id="Fill-58" fill="#00A1CE"></path>
                    <path d="M178.912984,28.698348 C177.756304,27.105708 178.109104,24.878028 179.701744,23.721348 C181.291864,22.564668 183.522064,22.917468 184.678744,24.510108 C185.832904,26.102748 185.480104,28.330428 183.889984,29.487108 C182.297344,30.643788 180.069664,30.290988 178.912984,28.698348" id="Fill-60" fill="#00A1CE"></path>
                    <path d="M175.04428,38.590104 C173.94556,37.078104 174.28072,34.961304 175.79272,33.862584 C177.30472,32.763864 179.42152,33.099024 180.52024,34.611024 C181.61896,36.123024 181.2838,38.239824 179.7718,39.338544 C178.2598,40.437264 176.143,40.102104 175.04428,38.590104" id="Fill-62" fill="#00A1CE"></path>
                    <path d="M170.256532,48.396432 C169.213252,46.960032 169.530772,44.949072 170.967172,43.905792 C172.403572,42.862512 174.414532,43.180032 175.460332,44.616432 C176.503612,46.052832 176.183572,48.063792 174.747172,49.107072 C173.310772,50.150352 171.299812,49.832832 170.256532,48.396432" id="Fill-64" fill="#00A1CE"></path>
                    <path d="M164.766964,57.775368 C163.776604,56.409528 164.079004,54.499368 165.442324,53.509008 C166.808164,52.516128 168.718324,52.818528 169.708684,54.184368 C170.701564,55.550208 170.399164,57.460368 169.033324,58.450728 C167.670004,59.443608 165.757324,59.141208 164.766964,57.775368" id="Fill-66" fill="#00A1CE"></path>
                    <path d="M158.741392,66.699444 C157.798912,65.401644 158.086192,63.587244 159.383992,62.647284 C160.679272,61.704804 162.493672,61.992084 163.436152,63.287364 C164.378632,64.585164 164.091352,66.399564 162.793552,67.342044 C161.498272,68.284524 159.683872,67.997244 158.741392,66.699444" id="Fill-68" fill="#00A1CE"></path>
                    <path d="M151.805848,75.162612 C150.911248,73.930332 151.183408,72.206652 152.415688,71.312052 C153.647968,70.417452 155.371648,70.689612 156.266248,71.921892 C157.160848,73.154172 156.888688,74.877852 155.656408,75.772452 C154.424128,76.667052 152.700448,76.394892 151.805848,75.162612" id="Fill-70" fill="#00A1CE"></path>
                    <path d="M144.352696,83.065836 C143.503456,81.896556 143.763016,80.258556 144.932296,79.406796 C146.101576,78.557556 147.739576,78.817116 148.591336,79.986396 C149.440576,81.158196 149.181016,82.796196 148.011736,83.645436 C146.839936,84.494676 145.201936,84.235116 144.352696,83.065836" id="Fill-72" fill="#00A1CE"></path>
                    <path d="M136.788412,90.187104 C135.951772,89.095944 136.158412,87.536064 137.247052,86.699424 C138.338212,85.862784 139.900612,86.066904 140.737252,87.158064 C141.571372,88.249224 141.367252,89.809104 140.276092,90.645744 C139.187452,91.482384 137.625052,91.278264 136.788412,90.187104" id="Fill-74" fill="#00A1CE"></path>
                    <path d="M128.478712,96.752964 C127.684912,95.717244 127.878952,94.232964 128.914672,93.439164 C129.950392,92.645364 131.434672,92.839404 132.228472,93.875124 C133.024792,94.910844 132.828232,96.395124 131.792512,97.188924 C130.756792,97.982724 129.272512,97.788684 128.478712,96.752964" id="Fill-76" fill="#00A1CE"></path>
                    <path d="M119.627464,102.906552 C118.871464,101.923752 119.057944,100.512552 120.040744,99.759072 C121.026064,99.003072 122.434744,99.189552 123.190744,100.172352 C123.944224,101.157672 123.760264,102.566352 122.774944,103.319832 C121.792144,104.075832 120.383464,103.889352 119.627464,102.906552" id="Fill-78" fill="#00A1CE"></path>
                    <path d="M109.93756,108.458112 C109.21936,107.523192 109.39576,106.185072 110.33068,105.466872 C111.2656,104.751192 112.60624,104.925072 113.32192,105.859992 C114.04012,106.794912 113.86372,108.135552 112.9288,108.851232 C111.99388,109.569432 110.65576,109.393032 109.93756,108.458112" id="Fill-80" fill="#00A1CE"></path>
                    <path d="M100.30108,113.196216 C99.62068,112.309176 99.787,111.036576 100.67404,110.353656 C101.5636,109.673256 102.8362,109.842096 103.5166,110.729136 C104.197,111.616176 104.03068,112.888776 103.14364,113.569176 C102.25408,114.252096 100.98148,114.083256 100.30108,113.196216" id="Fill-82" fill="#00A1CE"></path>
                    <path d="M93.804016,82.6833 C93.625096,80.91678 94.915336,79.33926 96.681856,79.16286 C98.448376,78.98394 100.023376,80.27166 100.202296,82.03818 C100.381216,83.8047 99.090976,85.38222 97.324456,85.56114 C95.557936,85.73754 93.982936,84.44982 93.804016,82.6833" id="Fill-84" fill="#00A1CE"></path>
                    <path d="M84.304372,87.95136 C84.135532,86.27304 85.357732,84.77616 87.038572,84.60732 C88.716892,84.43596 90.213772,85.66068 90.382612,87.339 C90.551452,89.01732 89.329252,90.51672 87.648412,90.68556 C85.970092,90.8544 84.473212,89.62968 84.304372,87.95136" id="Fill-86" fill="#00A1CE"></path>
                    <path d="M74.479648,92.36514 C74.318368,90.76998 75.482608,89.3487 77.075248,89.18742 C78.670408,89.02614 80.094208,90.18786 80.252968,91.78302 C80.414248,93.37818 79.252528,94.80198 77.657368,94.96074 C76.062208,95.12202 74.640928,93.9603 74.479648,92.36514" id="Fill-88" fill="#00A1CE"></path>
                    <path d="M64.2739,96.285 C64.12018,94.77048 65.22646,93.41724 66.74098,93.26604 C68.2555,93.11232 69.60622,94.2186 69.75994,95.73312 C69.91114,97.24764 68.80738,98.59836 67.29286,98.75208 C65.77834,98.90328 64.42762,97.79952 64.2739,96.285" id="Fill-90" fill="#00A1CE"></path>
                    <path d="M53.831524,99.309504 C53.687884,97.870584 54.736204,96.585384 56.175124,96.441744 C57.614044,96.295584 58.899244,97.346424 59.042884,98.785344 C59.189044,100.224264 58.138204,101.506944 56.699284,101.653104 C55.260364,101.796744 53.975164,100.748424 53.831524,99.309504" id="Fill-92" fill="#00A1CE"></path>
                    <path d="M43.680208,101.58834 C43.506328,100.22502 44.471488,98.98014 45.834808,98.80626 C47.198128,98.63238 48.443008,99.59754 48.616888,100.96086 C48.790768,102.32418 47.825608,103.56906 46.462288,103.74294 C45.098968,103.91682 43.854088,102.95166 43.680208,101.58834" id="Fill-94" fill="#00A1CE"></path>
                    <path d="M33.127456,102.934272 C32.963656,101.638992 33.878416,100.457112 35.173696,100.290792 C36.468976,100.126992 37.650856,101.041752 37.817176,102.337032 C37.980976,103.632312 37.066216,104.816712 35.770936,104.980512 C34.475656,105.144312 33.291256,104.229552 33.127456,102.934272" id="Fill-96" fill="#00A1CE"></path>
                    <path d="M22.38142,103.791072 C22.22518,102.561312 23.09458,101.437392 24.32434,101.281152 C25.55662,101.124912 26.68054,101.994312 26.83678,103.224072 C26.99302,104.453832 26.12362,105.577752 24.89134,105.733992 C23.66158,105.892752 22.53766,105.020832 22.38142,103.791072" id="Fill-98" fill="#00A1CE"></path>
                    <path d="M11.214292,103.704888 C11.065612,102.535608 11.892172,101.467128 13.061452,101.318448 C14.230732,101.169768 15.296692,101.998848 15.445372,103.165608 C15.594052,104.334888 14.767492,105.403368 13.600732,105.552048 C12.431452,105.700728 11.362972,104.874168 11.214292,103.704888" id="Fill-100" fill="#00A1CE"></path>
                    <path d="M0.503032,102.943344 C0.361912,101.832024 1.148152,100.818984 2.256952,100.677864 C3.368272,100.536744 4.381312,101.320464 4.522432,102.431784 C4.666072,103.543104 3.879832,104.556144 2.768512,104.697264 C1.659712,104.838384 0.644152,104.054664 0.503032,102.943344" id="Fill-102" fill="#00A1CE"></path>
                </g>
                <g id="Group" transform="translate(28.000000, 0.000000)" fill-rule="nonzero">
                    <path d="M94.4,9.6 C104.293383,9.6 113.90662,10.999986 123.24,13.8 C132.57338,16.600014 140.973296,20.4266424 148.44,25.28 L133.6,50.2 C121.466606,43.4799664 109.146729,40.12 96.64,40.12 C83.0132652,40.12 76.2,44.319958 76.2,52.72 C76.2,55.8933492 76.9466592,58.5066564 78.44,60.56 C79.9333408,62.6133436 82.9199776,64.6666564 87.4,66.72 L87.9616349,66.973762 C92.4634182,68.9798333 99.3694773,71.4152238 108.68,74.28 C123.053405,78.7600224 133.786631,84.1733016 140.88,90.52 C147.973369,96.8666984 151.52,105.546612 151.52,116.56 C151.52,130.56007 144.240073,142.22662 129.68,151.56 C135.09336,155.293352 139.013321,159.446644 141.44,164.02 C143.866679,168.593356 145.08,174.333299 145.08,181.24 C145.08,190.013377 142.513359,197.759966 137.38,204.48 C132.246641,211.200034 125.01338,216.426648 115.68,220.16 C106.34662,223.893352 95.4267292,225.76 82.92,225.76 C62.0132288,225.76 44.1867404,220.72005 29.44,210.64 L43.72,184.6 C55.853394,191.693369 68.1732708,195.24 80.68,195.24 C87.7733688,195.24 93.2333142,194.166677 97.06,192.02 C100.886686,189.873323 102.8,186.84002 102.8,182.92 C102.8,179.746651 102.053341,177.133344 100.56,175.08 C99.111912,173.088879 96.1718978,171.053906 91.7398734,168.975024 L91.32,168.78 C86.65331,166.633323 79.3733828,164.066682 69.48,161.08 C55.1065948,156.599978 44.4667012,151.233365 37.56,144.98 C30.6532988,138.726635 27.2,130.093388 27.2,119.08 C27.2,105.266598 34.666592,93.7867124 49.6,84.64 C44.1866396,80.7199804 40.2666788,76.3333576 37.84,71.48 C35.4133212,66.6266424 34.2,60.933366 34.2,54.4 C34.2,45.8132904 36.6733086,38.1133674 41.62,31.3 C46.5666914,24.4866326 53.5666214,19.1666858 62.62,15.34 C71.6733786,11.5133142 82.266606,9.6 94.4,9.6 Z M71.72,96.4 C67.7999804,101.626693 65.84,107.039972 65.84,112.64 C65.84,117.493358 67.3333184,121.319986 70.32,124.12 C73.1847762,126.805728 78.5397099,129.577286 86.3849516,132.434751 L86.3849516,132.434751 L87.4,132.8 C96.2634926,136.102085 102.133455,138.352387 105.010034,139.550962 L105.010034,139.550962 L105.6,139.8 C107.840011,136.999986 109.613327,134.106682 110.92,131.12 C112.226673,128.133318 112.88,125.333346 112.88,122.72 C112.88,117.866642 111.013352,113.946682 107.28,110.96 C103.546648,107.973318 96.2667208,104.706684 85.44,101.16 L85.44,101.16 Z" id="ยง" fill="#66C7E6" opacity="0.5" transform="translate(89.360000, 117.680000) rotate(10.000000) translate(-89.360000, -117.680000) "></path>
                    <path d="M85.6,12.8 C95.4933828,12.8 105.10662,14.199986 114.44,17 C123.77338,19.800014 132.173296,23.6266424 139.64,28.48 L124.8,53.4 C112.666606,46.6799664 100.346729,43.32 87.84,43.32 C74.2132652,43.32 67.4,47.519958 67.4,55.92 C67.4,59.0933492 68.1466592,61.7066564 69.64,63.76 C71.1333408,65.8133436 74.1199776,67.8666564 78.6,69.92 L79.1616349,70.173762 C83.6634182,72.1798333 90.5694773,74.6152238 99.88,77.48 C114.253405,81.9600224 124.986631,87.3733016 132.08,93.72 C139.173369,100.066698 142.72,108.746612 142.72,119.76 C142.72,133.76007 135.440073,145.42662 120.88,154.76 C126.29336,158.493352 130.213321,162.646644 132.64,167.22 C135.066679,171.793356 136.28,177.533299 136.28,184.44 C136.28,193.213377 133.713359,200.959966 128.58,207.68 C123.446641,214.400034 116.21338,219.626648 106.88,223.36 C97.54662,227.093352 86.6267292,228.96 74.12,228.96 C53.2132288,228.96 35.3867404,223.92005 20.64,213.84 L34.92,187.8 C47.053394,194.893369 59.3732708,198.44 71.88,198.44 C78.9733688,198.44 84.4333142,197.366677 88.26,195.22 C92.0866858,193.073323 94,190.04002 94,186.12 C94,182.946651 93.2533408,180.333344 91.76,178.28 C90.311912,176.288879 87.3718978,174.253906 82.9398734,172.175024 L82.52,171.98 C77.85331,169.833323 70.5733828,167.266682 60.68,164.28 C46.3065948,159.799978 35.6667012,154.433365 28.76,148.18 C21.8532988,141.926635 18.4,133.293388 18.4,122.28 C18.4,108.466598 25.866592,96.9867124 40.8,87.84 C35.3866396,83.9199804 31.4666788,79.5333576 29.04,74.68 C26.6133212,69.8266424 25.4,64.133366 25.4,57.6 C25.4,49.0132904 27.8733086,41.3133674 32.82,34.5 C37.7666914,27.6866326 44.7666214,22.3666858 53.82,18.54 C62.8733786,14.7133142 73.466606,12.8 85.6,12.8 Z M62.92,99.6 C58.9999804,104.826693 57.04,110.239972 57.04,115.84 C57.04,120.693358 58.5333184,124.519986 61.52,127.32 C64.3847762,130.005728 69.7397099,132.777286 77.5849516,135.634751 L77.5849516,135.634751 L78.6,136 C87.4634926,139.302085 93.333455,141.552387 96.210034,142.750962 L96.210034,142.750962 L96.8,143 C99.0400112,140.199986 100.813327,137.306682 102.12,134.32 C103.426673,131.333318 104.08,128.533346 104.08,125.92 C104.08,121.066642 102.213352,117.146682 98.48,114.16 C94.746648,111.173318 87.4667208,107.906684 76.64,104.36 L76.64,104.36 Z" id="ยง-copy" stroke="#252C5B" stroke-width="3.2" transform="translate(80.560000, 120.880000) rotate(10.000000) translate(-80.560000, -120.880000) "></path>
                </g>
            </g>
        </g>
    </g>
</svg>