<?xml version="1.0" encoding="UTF-8"?>
<svg width="282px" height="372px" viewBox="0 0 282 372" version="1.1" xmlns="http://www.w3.org/2000/svg" xmlns:xlink="http://www.w3.org/1999/xlink">
    <!-- Generator: Sketch 58 (84663) - https://sketch.com -->
    <title>Group 2</title>
    <desc>Created with Sketch.</desc>
    <defs>
        <polygon id="path-1" points="0.118837381 0.1428 6.99428262 0.1428 6.99428262 7.0189219 0.118837381 7.0189219"></polygon>
    </defs>
    <g id="Versuch-1" stroke="none" stroke-width="1" fill="none" fill-rule="evenodd">
        <g id="02-Einleitung" transform="translate(-1035.000000, -274.000000)">
            <g id="Group-2" transform="translate(1014.299981, 250.119546)">
                <path d="M114.192736,94.5491471 C114.861909,94.6158711 115.562966,94.7238315 116.281842,95.213933 C118.187967,96.5127687 118.218904,98.3726737 117.464216,100.443685 C116.924006,101.928485 116.383799,103.413283 115.843593,104.89808 C115.882061,104.896875 115.914312,104.899105 115.941349,104.904181 L116.000419,104.924899 L116.03037,104.961556 C120.446018,119.354692 127.699556,131.964515 138.582287,142.320261 C150.652984,153.804859 164.308169,163.014806 179.781916,169.418478 C184.842963,171.513059 190.041588,173.276633 195.199807,175.137299 L197.131898,175.840436 L197.116216,175.881587 C211.071253,180.940728 225.032654,185.979968 238.964727,191.099785 C240.053066,191.499368 241.07128,192.345725 241.883373,193.198372 C245.084661,196.560681 244.847801,200.329839 243.304104,204.198581 L232.995354,232.546311 L232.777082,233.105127 C231.781633,235.608858 230.576014,237.943091 227.880804,239.226781 C225.461103,240.377892 222.995035,240.455533 220.448983,239.719263 L220.116433,239.618633 L216.311149,238.233911 C215.710666,239.673373 215.110339,241.112405 214.510012,242.551436 C213.451203,243.525819 212.258815,244.237107 210.897078,244.617179 C210.26398,244.563926 209.630649,244.504654 208.996252,244.459405 C208.024515,244.391406 206.951244,243.12252 206.229216,243.959228 C205.133711,245.229675 191.235036,268.027346 185.468358,277.204091 C183.909707,279.682679 182.695787,282.412202 180.628098,284.541056 C180.134773,284.312332 179.655784,284.046439 179.146929,283.860384 C172.627366,281.476436 166.091559,279.134897 159.587526,276.708282 C157.654155,275.987638 156.970405,274.380711 157.726647,272.357767 C158.458242,270.403844 159.951716,269.72839 161.874254,270.30352 C162.574221,270.51251 163.266646,270.75775 163.935385,271.050319 C164.679227,271.376158 165.096838,271.180587 165.425293,270.373567 C171.242908,256.088661 177.913261,242.159491 183.136578,227.627448 L183.594463,226.332179 L179.336681,224.610076 L178.945947,225.682047 C178.413348,225.507666 177.868292,225.365034 177.351734,225.154014 C161.904772,218.860091 146.02671,214.476538 129.282705,213.629176 C111.642703,212.73623 94.5265523,214.487074 78.5301975,222.249086 C76.2473965,223.357127 74.0466619,224.627177 71.8319679,225.868928 L69.6032753,231.992567 C68.6224347,234.546182 66.9953752,236.006225 64.3246723,235.115861 C62.1665256,234.393004 61.6285844,232.057981 62.7320241,229.02135 C63.1926563,227.753296 63.6567808,226.485557 64.1172312,225.215525 C69.8022715,209.526633 75.4863336,193.835473 81.1708848,178.145447 L81.9600012,175.978912 C78.1691812,173.165857 75.7000185,168.571119 75.7000185,163.380454 C75.7000185,154.82004 82.4157473,147.880454 90.7000185,147.880454 C91.2092414,147.880454 91.7125378,147.906674 92.2087122,147.95788 C92.3300844,147.650579 92.4492237,147.341807 92.5624569,147.030701 C98.7412659,130.086771 104.916094,113.141393 111.092025,96.1954594 C111.559742,94.9500572 113.149826,94.4438926 114.192736,94.5491471 Z M243.239893,206.114596 C244.835825,206.692708 246.433828,207.265132 248.027099,207.850556 C251.37135,209.078805 252.575319,211.722521 251.319019,215.176659 C249.081681,221.328499 246.738665,227.442795 244.599528,233.628537 C243.734342,236.131936 242.492927,237.983137 239.877177,238.58423 C237.297692,238.485382 235.071262,237.244377 232.716946,236.417519 L232.273896,236.267716 L243.239893,206.114596 Z" id="Combined-Shape" fill="#66C7E6" opacity="0.5"></path>
                <g id="Group-25" transform="translate(156.500000, 203.500000) rotate(20.000000) translate(-156.500000, -203.500000) translate(64.000000, 123.000000)" stroke="#00559D" stroke-width="4">
                    <path d="M18.2878262,139.23 C20.3819784,136.806363 22.3810577,134.291044 24.5864114,131.972673 C36.9849472,118.941912 52.4971233,111.286446 69.4082304,105.984157 C85.4602852,100.950972 101.90876,99.6122422 118.605953,100.256565 C119.164507,100.278636 119.726456,100.225155 120.287557,100.206479 L120.33,46.0460523 C114.151954,46.0256785 107.96457,46.2158342 101.797559,45.9433342 C85.03755,45.2030851 69.0279385,41.1359597 53.7305255,34.3336478 C39.9381518,28.1994277 27.9487694,19.6568513 18.8608107,7.39180677 C18.7173523,7.1982554 18.4694835,7.0819548 18.27,6.93 C18.2759421,51.0308489 18.2818841,95.13 18.2878262,139.23 Z" id="Stroke-3"></path>
                    <path d="M120.372263,46.0257765 L120.33,99.986466 C122.000248,100.047362 123.66965,100.108258 125.339897,100.17 C138.285161,100.166617 151.232116,100.163234 164.178225,100.159851 C166.974368,100.034675 169.387606,99.0865573 171.352851,97.0135534 C173.605488,94.6352233 173.825257,91.6834552 173.878509,88.6614874 C173.875973,78.200049 173.872592,67.7369191 173.870056,57.2754807 C173.997692,52.9434015 172.929274,49.1737653 168.763799,47.025487 C167.707215,46.4808055 166.458756,46.0156271 165.297359,46.012244 C150.322609,45.9640346 135.347859,46.0063235 120.372263,46.0257765 Z" id="Stroke-7"></path>
                    <path d="M164.43,100.17 C151.446595,100.173401 138.462343,100.175952 125.479785,100.179353 C125.743421,117.493605 123.9251,134.716882 123.243547,151.990323 C123.207096,152.919634 122.843432,153.268231 121.938086,153.212966 C121.124292,153.163652 120.303717,153.170454 119.489075,153.216367 C117.251141,153.341352 115.941442,154.563994 115.92,156.790768 C115.899057,159.095764 117.230797,160.457846 119.535698,160.474851 C127.290477,160.534368 135.046103,160.496957 142.800882,160.50801 C143.406141,160.50886 144.010553,160.600686 144.615812,160.65 C145.972983,157.76004 146.204406,154.579299 146.893587,151.524392 C149.440932,140.215373 155.320594,112.276543 155.985192,110.602424 C156.423454,109.499665 158.034936,110.380512 159.081,110.093981 C159.764248,109.907779 160.451734,109.736031 161.136677,109.558331 C162.420946,108.680035 163.40089,107.531363 164.140086,106.167581 C164.236724,104.168671 164.333362,102.16976 164.43,100.17 Z" id="Stroke-11"></path>
                    <g id="Group-16" transform="translate(10.080000, -0.000000)">
                        <path d="M4.83640921,0.150627705 C3.99178761,-0.0596337664 3.29486868,0.0758485209 2.64209077,0.238603217 C1.62430052,0.491092934 0.300918531,1.48961499 0.287336676,2.79253231 C0.279696883,20.458015 0.272905956,38.1226179 0.261870698,55.7872208 C0.261870698,56.5270948 0.228764927,57.2660891 0.210938742,58.0059632 C0.207543279,68.0844377 0.203298949,78.1629123 0.199054619,88.2405071 C0.223671731,104.585477 0.249137709,120.931327 0.272905956,137.275418 C0.274603687,138.59857 0.27205709,139.920841 0.272905956,141.242234 C0.274603687,144.406713 1.58100836,146.375605 3.86021339,146.317949 C6.67929715,146.242762 7.71066926,144.353927 7.75905462,141.675073 C7.75396142,95.9726748 7.7471705,50.2711562 7.74122843,4.56787813 C7.7420773,2.40895908 7.07571754,0.707512692 4.83640921,0.150627705" id="Stroke-15"></path>
                    </g>
                    <path d="M173.88,57.3375218 C173.882497,67.8130264 173.885826,78.2885311 173.888323,88.7631889 C176.540849,88.6708825 179.223339,89.1696758 181.839244,88.3482336 C184.095598,86.9187549 184.629932,84.7990954 184.586652,82.2052012 C184.480951,75.7954118 184.591646,69.3830819 184.59,62.9715988 C184.589149,59.3716497 182.550025,57.341756 178.98114,57.3315938 C177.28076,57.3265127 175.58038,57.3349812 173.88,57.3375218 Z" id="Stroke-19"></path>
                    <path d="M10.0680763,87.57 C10.0723348,77.9097189 10.0765932,68.2502811 10.08,58.59 C4.32595731,60.3894972 -0.105405054,66.7956735 0.00190835303,73.1588439 C0.112628535,79.6940376 4.53291888,86.023478 10.0680763,87.57 Z" id="Stroke-23"></path>
                </g>
                <g id="Group-104" transform="translate(196.000000, 337.000000) scale(-1, 1) rotate(30.000000) translate(-196.000000, -337.000000) translate(80.000000, 285.000000)">
                    <path d="M107.43789,97.04632 C108.48579,95.46292 110.61939,95.02822 112.20279,96.07612 C113.78619,97.12402 114.21879,99.25762 113.17089,100.84102 C112.12299,102.42442 109.98939,102.85912 108.40809,101.81122 C106.82469,100.76332 106.38999,98.62972 107.43789,97.04632" id="Fill-1" fill="#00A1CE"></path>
                    <path d="M98.23716,98.37688 C99.19056,96.93838 101.12886,96.54358 102.56736,97.49488 C104.00796,98.44828 104.40276,100.38658 103.44936,101.82718 C102.49596,103.26568 100.55766,103.66048 99.11916,102.70708 C97.67856,101.75578 97.28376,99.81538 98.23716,98.37688" id="Fill-3" fill="#00A1CE"></path>
                    <path d="M89.15466,98.84917 C90.05976,97.48207 91.90146,97.10617 93.26856,98.01127 C94.63566,98.91637 95.01156,100.76017 94.10646,102.12727 C93.20136,103.49437 91.35966,103.86817 89.99256,102.96307 C88.62546,102.05797 88.24956,100.21627 89.15466,98.84917" id="Fill-5" fill="#00A1CE"></path>
                    <path d="M80.30442,98.71603 C81.16332,97.41613 82.91472,97.06123 84.21252,97.92013 C85.51242,98.78113 85.86732,100.53043 85.00842,101.83033 C84.14952,103.12813 82.39812,103.48513 81.10032,102.62413 C79.80042,101.76523 79.44552,100.01593 80.30442,98.71603" id="Fill-7" fill="#00A1CE"></path>
                    <path d="M71.25279,97.84096 C72.06969,96.60616 73.73289,96.26806 74.96559,97.08496 C76.20039,97.90186 76.53849,99.56506 75.72159,100.79776 C74.90469,102.03256 73.24149,102.37066 72.00879,101.55376 C70.77399,100.73686 70.43589,99.07576 71.25279,97.84096" id="Fill-9" fill="#00A1CE"></path>
                    <path d="M62.32989,96.29305 C63.10479,95.12125 64.68609,94.79995 65.85789,95.57485 C67.02969,96.35185 67.35099,97.93105 66.57609,99.10285 C65.79909,100.27465 64.21989,100.59595 63.04809,99.82105 C61.87629,99.04405 61.55289,97.46485 62.32989,96.29305" id="Fill-11" fill="#00A1CE"></path>
                    <path d="M53.60565,94.1941 C54.34275,93.0811 55.84215,92.7745 56.95725,93.5116 C58.07025,94.2487 58.37685,95.7502 57.63765,96.8632 C56.90055,97.9762 55.40115,98.2828 54.28815,97.5457 C53.17305,96.8086 52.86855,95.3071 53.60565,94.1941" id="Fill-13" fill="#00A1CE"></path>
                    <path d="M44.9757,91.25032 C45.675,90.19192 47.1009,89.90212 48.1593,90.60352 C49.2177,91.30282 49.5075,92.72872 48.8061,93.78712 C48.1068,94.84342 46.6809,95.13532 45.6225,94.43392 C44.5662,93.73462 44.2764,92.30872 44.9757,91.25032" id="Fill-15" fill="#00A1CE"></path>
                    <path d="M36.63156,87.73933 C37.29726,86.73343 38.65176,86.45833 39.65556,87.12403 C40.66146,87.78973 40.93656,89.14423 40.27086,90.14803 C39.60516,91.15393 38.25276,91.42903 37.24686,90.76333 C36.24096,90.09763 35.96586,88.74523 36.63156,87.73933" id="Fill-17" fill="#00A1CE"></path>
                    <path d="M28.86534,83.91313 C29.47224,82.94293 30.75114,82.64683 31.72134,83.25373 C32.69364,83.86063 32.98974,85.13953 32.38284,86.10973 C31.77594,87.08203 30.49494,87.37603 29.52474,86.76913 C28.55454,86.16433 28.25844,84.88333 28.86534,83.91313" id="Fill-19" fill="#00A1CE"></path>
                    <path d="M21.31521,79.3429 C21.89271,78.421 23.10651,78.1396 24.02841,78.7171 C24.95241,79.2925 25.23171,80.5084 24.65631,81.4303 C24.07881,82.3522 22.86501,82.6336 21.94101,82.0561 C21.01911,81.4807 20.73771,80.2648 21.31521,79.3429" id="Fill-21" fill="#00A1CE"></path>
                    <path d="M13.92888,74.23003 C14.47698,73.35433 15.63198,73.08763 16.50768,73.63573 C17.38338,74.18173 17.65008,75.33673 17.10198,76.21243 C16.55598,77.09023 15.40098,77.35693 14.52318,76.80883 C13.64748,76.26073 13.38078,75.10573 13.92888,74.23003" id="Fill-23" fill="#00A1CE"></path>
                    <path d="M6.76767,68.2864 C7.28847,67.4548 8.38467,67.2007 9.21627,67.7215 C10.04997,68.2402 10.30197,69.3385 9.78327,70.1701 C9.26247,71.0038 8.16627,71.2558 7.33257,70.735 C6.50097,70.2163 6.24687,69.118 6.76767,68.2864" id="Fill-25" fill="#00A1CE"></path>
                    <path d="M0.25683,62.14747 C0.75033,61.35577 1.79193,61.11637 2.58363,61.60987 C3.37533,62.10547 3.61473,63.14707 3.12123,63.93667 C2.62773,64.72837 1.58403,64.96777 0.79443,64.47427 C0.00273,63.98077 -0.23667,62.93917 0.25683,62.14747" id="Fill-27" fill="#00A1CE"></path>
                    <path d="M204.24957,23.02216 C203.40957,21.31906 204.10887,19.25896 205.81197,18.41896 C207.51507,17.57896 209.57727,18.27826 210.41517,19.98136 C211.25517,21.68446 210.55587,23.74456 208.85277,24.58456 C207.14967,25.42456 205.08957,24.72526 204.24957,23.02216" id="Fill-29" fill="#00A1CE"></path>
                    <path d="M200.58864,31.73422 C199.82424,30.18652 200.46054,28.31332 202.00824,27.54892 C203.55804,26.78662 205.43124,27.42082 206.19354,28.97062 C206.95794,30.51832 206.32164,32.39152 204.77394,33.15592 C203.22624,33.91822 201.35094,33.28192 200.58864,31.73422" id="Fill-31" fill="#00A1CE"></path>
                    <path d="M196.39725,39.79465 C195.67275,38.32465 196.27545,36.54385 197.74755,35.81935 C199.21755,35.09275 200.99835,35.69755 201.72285,37.16755 C202.44735,38.63965 201.84465,40.41835 200.37255,41.14495 C198.90255,41.86945 197.12175,41.26465 196.39725,39.79465" id="Fill-33" fill="#00A1CE"></path>
                    <path d="M191.71551,47.26834 C191.02671,45.87184 191.60001,44.17924 192.99861,43.49044 C194.39511,42.80164 196.08561,43.37704 196.77441,44.77354 C197.46321,46.17004 196.88991,47.86054 195.49341,48.55144 C194.09481,49.24024 192.40431,48.66484 191.71551,47.26834" id="Fill-35" fill="#00A1CE"></path>
                    <path d="M186.40839,54.65509 C185.75319,53.32789 186.29919,51.72139 187.62639,51.06619 C188.95359,50.41309 190.56009,50.95699 191.21529,52.28419 C191.86839,53.61139 191.32449,55.21789 189.99729,55.87309 C188.67009,56.52829 187.06359,55.98229 186.40839,54.65509" id="Fill-37" fill="#00A1CE"></path>
                    <path d="M180.5307,61.53952 C179.9091,60.27952 180.4278,58.75282 181.6878,58.13122 C182.9478,57.50962 184.4745,58.02622 185.0961,59.28832 C185.7177,60.54832 185.2011,62.07502 183.939,62.69662 C182.679,63.31822 181.1523,62.79952 180.5307,61.53952" id="Fill-39" fill="#00A1CE"></path>
                    <path d="M174.15027,67.85212 C173.56017,66.65512 174.05157,65.20402 175.24857,64.61392 C176.44767,64.02382 177.89667,64.51522 178.48887,65.71222 C179.07897,66.91132 178.58547,68.36032 177.38847,68.95042 C176.19147,69.54262 174.74037,69.04912 174.15027,67.85212" id="Fill-41" fill="#00A1CE"></path>
                    <path d="M167.328,73.89004 C166.7673,72.75184 167.2335,71.37424 168.3717,70.81354 C169.5099,70.25284 170.8875,70.71904 171.4482,71.85724 C172.0089,72.99544 171.5427,74.37304 170.4045,74.93374 C169.2663,75.49654 167.8887,75.02824 167.328,73.89004" id="Fill-43" fill="#00A1CE"></path>
                    <path d="M160.05969,79.29817 C159.52629,78.21667 159.97149,76.90837 161.05089,76.37497 C162.13239,75.84157 163.44069,76.28677 163.97409,77.36827 C164.50749,78.44767 164.06439,79.75807 162.98289,80.28937 C161.90139,80.82277 160.59309,80.37967 160.05969,79.29817" id="Fill-45" fill="#00A1CE"></path>
                    <path d="M152.80104,84.03976 C152.26764,83.02546 152.65614,81.77176 153.67044,81.24046 C154.68474,80.70706 155.93844,81.09556 156.46974,82.10986 C157.00314,83.12206 156.61464,84.37576 155.60034,84.90916 C154.58814,85.44256 153.33444,85.05406 152.80104,84.03976" id="Fill-47" fill="#00A1CE"></path>
                    <path d="M144.95691,88.16983 C144.45081,87.20803 144.82041,86.01523 145.78221,85.50913 C146.74611,85.00303 147.93681,85.37263 148.44291,86.33653 C148.94901,87.29833 148.57941,88.48903 147.61761,88.99513 C146.65371,89.50333 145.46301,89.13163 144.95691,88.16983" id="Fill-49" fill="#00A1CE"></path>
                    <path d="M136.81899,91.97482 C136.33809,91.05922 136.68879,89.92942 137.60439,89.44852 C138.51789,88.96552 139.64979,89.31832 140.13069,90.23182 C140.61159,91.14742 140.26089,92.27932 139.34529,92.76022 C138.43179,93.24112 137.29989,92.89042 136.81899,91.97482" id="Fill-51" fill="#00A1CE"></path>
                    <path d="M128.07711,95.16682 C127.61931,94.29742 127.95321,93.22222 128.82261,92.76652 C129.69201,92.30872 130.76721,92.64262 131.22291,93.51202 C131.68071,94.37932 131.34681,95.45452 130.47741,95.91232 C129.61011,96.37012 128.53491,96.03622 128.07711,95.16682" id="Fill-53" fill="#00A1CE"></path>
                    <g id="Group-57" transform="translate(224.700000, 0.556990)">
                        <mask id="mask-2" fill="white">
                            <use xlink:href="#path-1"></use>
                        </mask>
                        <g id="Clip-56"></g>
                        <path d="M0.77511,5.60154 C-0.33999,4.06644 0.00021,1.91604 1.53531,0.79884 C3.07251,-0.31626 5.22081,0.02394 6.33801,1.56114 C7.45311,3.09624 7.11291,5.24664 5.57781,6.36174 C4.04061,7.47894 1.89021,7.13664 0.77511,5.60154" id="Fill-55" fill="#00A1CE" mask="url(#mask-2)"></path>
                    </g>
                    <path d="M223.49943,15.24271 C222.48513,13.84621 222.79383,11.89111 224.19033,10.87681 C225.58683,9.86251 227.54193,10.17331 228.55623,11.56981 C229.57053,12.96421 229.26183,14.91931 227.86533,15.93361 C226.46883,16.94791 224.51373,16.63921 223.49943,15.24271" id="Fill-58" fill="#00A1CE"></path>
                    <path d="M220.76082,23.91529 C219.79692,22.58809 220.09092,20.73169 221.41812,19.76779 C222.74322,18.80389 224.60172,19.09789 225.56562,20.42509 C226.52742,21.75229 226.23342,23.60869 224.90832,24.57259 C223.58112,25.53649 221.72472,25.24249 220.76082,23.91529" id="Fill-60" fill="#00A1CE"></path>
                    <path d="M217.5369,32.15842 C216.6213,30.89842 216.9006,29.13442 218.1606,28.21882 C219.4206,27.30322 221.1846,27.58252 222.1002,28.84252 C223.0158,30.10252 222.7365,31.86652 221.4765,32.78212 C220.2165,33.69772 218.4525,33.41842 217.5369,32.15842" id="Fill-62" fill="#00A1CE"></path>
                    <path d="M213.54711,40.33036 C212.67771,39.13336 212.94231,37.45756 214.13931,36.58816 C215.33631,35.71876 217.01211,35.98336 217.88361,37.18036 C218.75301,38.37736 218.48631,40.05316 217.28931,40.92256 C216.09231,41.79196 214.41651,41.52736 213.54711,40.33036" id="Fill-64" fill="#00A1CE"></path>
                    <path d="M208.97247,48.14614 C208.14717,47.00794 208.39917,45.41614 209.53527,44.59084 C210.67347,43.76344 212.26527,44.01544 213.09057,45.15364 C213.91797,46.29184 213.66597,47.88364 212.52777,48.70894 C211.39167,49.53634 209.79777,49.28434 208.97247,48.14614" id="Fill-66" fill="#00A1CE"></path>
                    <path d="M203.95116,55.58287 C203.16576,54.50137 203.40516,52.98937 204.48666,52.20607 C205.56606,51.42067 207.07806,51.66007 207.86346,52.73947 C208.64886,53.82097 208.40946,55.33297 207.32796,56.11837 C206.24856,56.90377 204.73656,56.66437 203.95116,55.58287" id="Fill-68" fill="#00A1CE"></path>
                    <path d="M198.17154,62.63551 C197.42604,61.60861 197.65284,60.17221 198.67974,59.42671 C199.70664,58.68121 201.14304,58.90801 201.88854,59.93491 C202.63404,60.96181 202.40724,62.39821 201.38034,63.14371 C200.35344,63.88921 198.91704,63.66241 198.17154,62.63551" id="Fill-70" fill="#00A1CE"></path>
                    <path d="M191.96058,69.22153 C191.25288,68.24713 191.46918,66.88213 192.44358,66.17233 C193.41798,65.46463 194.78298,65.68093 195.49278,66.65533 C196.20048,67.63183 195.98418,68.99683 195.00978,69.70453 C194.03328,70.41223 192.66828,70.19593 191.96058,69.22153" id="Fill-72" fill="#00A1CE"></path>
                    <path d="M185.65701,75.15592 C184.95981,74.24662 185.13201,72.94672 186.03921,72.24952 C186.94851,71.55232 188.25051,71.72242 188.94771,72.63172 C189.64281,73.54102 189.47271,74.84092 188.56341,75.53812 C187.65621,76.23532 186.35421,76.06522 185.65701,75.15592" id="Fill-74" fill="#00A1CE"></path>
                    <path d="M178.73226,80.62747 C178.07076,79.76437 178.23246,78.52747 179.09556,77.86597 C179.95866,77.20447 181.19556,77.36617 181.85706,78.22927 C182.52066,79.09237 182.35686,80.32927 181.49376,80.99077 C180.63066,81.65227 179.39376,81.49057 178.73226,80.62747" id="Fill-76" fill="#00A1CE"></path>
                    <path d="M171.35622,85.75546 C170.72622,84.93646 170.88162,83.76046 171.70062,83.13256 C172.52172,82.50256 173.69562,82.65796 174.32562,83.47696 C174.95352,84.29806 174.80022,85.47196 173.97912,86.09986 C173.16012,86.72986 171.98622,86.57446 171.35622,85.75546" id="Fill-78" fill="#00A1CE"></path>
                    <path d="M163.2813,90.38176 C162.6828,89.60266 162.8298,88.48756 163.6089,87.88906 C164.388,87.29266 165.5052,87.43756 166.1016,88.21666 C166.7001,88.99576 166.5531,90.11296 165.774,90.70936 C164.9949,91.30786 163.8798,91.16086 163.2813,90.38176" id="Fill-80" fill="#00A1CE"></path>
                    <path d="M155.2509,94.33018 C154.6839,93.59098 154.8225,92.53048 155.5617,91.96138 C156.303,91.39438 157.3635,91.53508 157.9305,92.27428 C158.4975,93.01348 158.3589,94.07398 157.6197,94.64098 C156.8784,95.21008 155.8179,95.06938 155.2509,94.33018" id="Fill-82" fill="#00A1CE"></path>
                    <path d="M149.83668,68.90275 C149.68758,67.43065 150.76278,66.11605 152.23488,65.96905 C153.70698,65.81995 155.01948,66.89305 155.16858,68.36515 C155.31768,69.83725 154.24248,71.15185 152.77038,71.30095 C151.29828,71.44795 149.98578,70.37485 149.83668,68.90275" id="Fill-84" fill="#00A1CE"></path>
                    <path d="M141.92031,73.2928 C141.77961,71.8942 142.79811,70.6468 144.19881,70.5061 C145.59741,70.3633 146.84481,71.3839 146.98551,72.7825 C147.12621,74.1811 146.10771,75.4306 144.70701,75.5713 C143.30841,75.712 142.06101,74.6914 141.92031,73.2928" id="Fill-86" fill="#00A1CE"></path>
                    <path d="M133.73304,76.97095 C133.59864,75.64165 134.56884,74.45725 135.89604,74.32285 C137.22534,74.18845 138.41184,75.15655 138.54414,76.48585 C138.67854,77.81515 137.71044,79.00165 136.38114,79.13395 C135.05184,79.26835 133.86744,78.30025 133.73304,76.97095" id="Fill-88" fill="#00A1CE"></path>
                    <path d="M125.22825,80.2375 C125.10015,78.9754 126.02205,77.8477 127.28415,77.7217 C128.54625,77.5936 129.67185,78.5155 129.79995,79.7776 C129.92595,81.0397 129.00615,82.1653 127.74405,82.2934 C126.48195,82.4194 125.35635,81.4996 125.22825,80.2375" id="Fill-90" fill="#00A1CE"></path>
                    <path d="M116.52627,82.75792 C116.40657,81.55882 117.28017,80.48782 118.47927,80.36812 C119.67837,80.24632 120.74937,81.12202 120.86907,82.32112 C120.99087,83.52022 120.11517,84.58912 118.91607,84.71092 C117.71697,84.83062 116.64597,83.95702 116.52627,82.75792" id="Fill-92" fill="#00A1CE"></path>
                    <path d="M108.06684,84.65695 C107.92194,83.52085 108.72624,82.48345 109.86234,82.33855 C110.99844,82.19365 112.03584,82.99795 112.18074,84.13405 C112.32564,85.27015 111.52134,86.30755 110.38524,86.45245 C109.24914,86.59735 108.21174,85.79305 108.06684,84.65695" id="Fill-94" fill="#00A1CE"></path>
                    <path d="M99.27288,85.77856 C99.13638,84.69916 99.89868,83.71426 100.97808,83.57566 C102.05748,83.43916 103.04238,84.20146 103.18098,85.28086 C103.31748,86.36026 102.55518,87.34726 101.47578,87.48376 C100.39638,87.62026 99.40938,86.85796 99.27288,85.77856" id="Fill-96" fill="#00A1CE"></path>
                    <path d="M90.31785,86.49256 C90.18765,85.46776 90.91215,84.53116 91.93695,84.40096 C92.96385,84.27076 93.90045,84.99526 94.03065,86.02006 C94.16085,87.04486 93.43635,87.98146 92.40945,88.11166 C91.38465,88.24396 90.44805,87.51736 90.31785,86.49256" id="Fill-98" fill="#00A1CE"></path>
                    <path d="M81.01191,86.42074 C80.88801,85.44634 81.57681,84.55594 82.55121,84.43204 C83.52561,84.30814 84.41391,84.99904 84.53781,85.97134 C84.66171,86.94574 83.97291,87.83614 83.00061,87.96004 C82.02621,88.08394 81.13581,87.39514 81.01191,86.42074" id="Fill-100" fill="#00A1CE"></path>
                    <path d="M72.08586,85.78612 C71.96826,84.86002 72.62346,84.01582 73.54746,83.89822 C74.47356,83.78062 75.31776,84.43372 75.43536,85.35982 C75.55506,86.28592 74.89986,87.13012 73.97376,87.24772 C73.04976,87.36532 72.20346,86.71222 72.08586,85.78612" id="Fill-102" fill="#00A1CE"></path>
                </g>
                <g id="Group-104-Copy" transform="translate(79.000000, 58.500000) scale(1, -1) rotate(30.000000) translate(-79.000000, -58.500000) translate(1.000000, 37.000000)" fill="#00A1CE">
                    <path d="M107.43789,35.84632 C108.48579,34.26292 110.61939,33.82822 112.20279,34.87612 C113.78619,35.92402 114.21879,38.05762 113.17089,39.64102 C112.12299,41.22442 109.98939,41.65912 108.40809,40.61122 C106.82469,39.56332 106.38999,37.42972 107.43789,35.84632" id="Fill-1"></path>
                    <path d="M98.23716,37.17688 C99.19056,35.73838 101.12886,35.34358 102.56736,36.29488 C104.00796,37.24828 104.40276,39.18658 103.44936,40.62718 C102.49596,42.06568 100.55766,42.46048 99.11916,41.50708 C97.67856,40.55578 97.28376,38.61538 98.23716,37.17688" id="Fill-3"></path>
                    <path d="M89.15466,37.64917 C90.05976,36.28207 91.90146,35.90617 93.26856,36.81127 C94.63566,37.71637 95.01156,39.56017 94.10646,40.92727 C93.20136,42.29437 91.35966,42.66817 89.99256,41.76307 C88.62546,40.85797 88.24956,39.01627 89.15466,37.64917" id="Fill-5"></path>
                    <path d="M80.30442,37.51603 C81.16332,36.21613 82.91472,35.86123 84.21252,36.72013 C85.51242,37.58113 85.86732,39.33043 85.00842,40.63033 C84.14952,41.92813 82.39812,42.28513 81.10032,41.42413 C79.80042,40.56523 79.44552,38.81593 80.30442,37.51603" id="Fill-7"></path>
                    <path d="M71.25279,36.64096 C72.06969,35.40616 73.73289,35.06806 74.96559,35.88496 C76.20039,36.70186 76.53849,38.36506 75.72159,39.59776 C74.90469,40.83256 73.24149,41.17066 72.00879,40.35376 C70.77399,39.53686 70.43589,37.87576 71.25279,36.64096" id="Fill-9"></path>
                    <path d="M62.32989,35.09305 C63.10479,33.92125 64.68609,33.59995 65.85789,34.37485 C67.02969,35.15185 67.35099,36.73105 66.57609,37.90285 C65.79909,39.07465 64.21989,39.39595 63.04809,38.62105 C61.87629,37.84405 61.55289,36.26485 62.32989,35.09305" id="Fill-11"></path>
                    <path d="M53.60565,32.9941 C54.34275,31.8811 55.84215,31.5745 56.95725,32.3116 C58.07025,33.0487 58.37685,34.5502 57.63765,35.6632 C56.90055,36.7762 55.40115,37.0828 54.28815,36.3457 C53.17305,35.6086 52.86855,34.1071 53.60565,32.9941" id="Fill-13"></path>
                    <path d="M44.9757,30.05032 C45.675,28.99192 47.1009,28.70212 48.1593,29.40352 C49.2177,30.10282 49.5075,31.52872 48.8061,32.58712 C48.1068,33.64342 46.6809,33.93532 45.6225,33.23392 C44.5662,32.53462 44.2764,31.10872 44.9757,30.05032" id="Fill-15"></path>
                    <path d="M36.63156,26.53933 C37.29726,25.53343 38.65176,25.25833 39.65556,25.92403 C40.66146,26.58973 40.93656,27.94423 40.27086,28.94803 C39.60516,29.95393 38.25276,30.22903 37.24686,29.56333 C36.24096,28.89763 35.96586,27.54523 36.63156,26.53933" id="Fill-17"></path>
                    <path d="M28.86534,22.71313 C29.47224,21.74293 30.75114,21.44683 31.72134,22.05373 C32.69364,22.66063 32.98974,23.93953 32.38284,24.90973 C31.77594,25.88203 30.49494,26.17603 29.52474,25.56913 C28.55454,24.96433 28.25844,23.68333 28.86534,22.71313" id="Fill-19"></path>
                    <path d="M21.31521,18.1429 C21.89271,17.221 23.10651,16.9396 24.02841,17.5171 C24.95241,18.0925 25.23171,19.3084 24.65631,20.2303 C24.07881,21.1522 22.86501,21.4336 21.94101,20.8561 C21.01911,20.2807 20.73771,19.0648 21.31521,18.1429" id="Fill-21"></path>
                    <path d="M13.92888,13.03003 C14.47698,12.15433 15.63198,11.88763 16.50768,12.43573 C17.38338,12.98173 17.65008,14.13673 17.10198,15.01243 C16.55598,15.89023 15.40098,16.15693 14.52318,15.60883 C13.64748,15.06073 13.38078,13.90573 13.92888,13.03003" id="Fill-23"></path>
                    <path d="M6.76767,7.0864 C7.28847,6.2548 8.38467,6.0007 9.21627,6.5215 C10.04997,7.0402 10.30197,8.1385 9.78327,8.9701 C9.26247,9.8038 8.16627,10.0558 7.33257,9.535 C6.50097,9.0163 6.24687,7.918 6.76767,7.0864" id="Fill-25"></path>
                    <path d="M0.25683,0.94747 C0.75033,0.15577 1.79193,-0.08363 2.58363,0.40987 C3.37533,0.90547 3.61473,1.94707 3.12123,2.73667 C2.62773,3.52837 1.58403,3.76777 0.79443,3.27427 C0.00273,2.78077 -0.23667,1.73917 0.25683,0.94747" id="Fill-27"></path>
                    <path d="M149.83668,7.70275 C149.68758,6.23065 150.76278,4.91605 152.23488,4.76905 C153.70698,4.61995 155.01948,5.69305 155.16858,7.16515 C155.31768,8.63725 154.24248,9.95185 152.77038,10.10095 C151.29828,10.24795 149.98578,9.17485 149.83668,7.70275" id="Fill-84"></path>
                    <path d="M141.92031,12.0928 C141.77961,10.6942 142.79811,9.4468 144.19881,9.3061 C145.59741,9.1633 146.84481,10.1839 146.98551,11.5825 C147.12621,12.9811 146.10771,14.2306 144.70701,14.3713 C143.30841,14.512 142.06101,13.4914 141.92031,12.0928" id="Fill-86"></path>
                    <path d="M133.73304,15.77095 C133.59864,14.44165 134.56884,13.25725 135.89604,13.12285 C137.22534,12.98845 138.41184,13.95655 138.54414,15.28585 C138.67854,16.61515 137.71044,17.80165 136.38114,17.93395 C135.05184,18.06835 133.86744,17.10025 133.73304,15.77095" id="Fill-88"></path>
                    <path d="M125.22825,19.0375 C125.10015,17.7754 126.02205,16.6477 127.28415,16.5217 C128.54625,16.3936 129.67185,17.3155 129.79995,18.5776 C129.92595,19.8397 129.00615,20.9653 127.74405,21.0934 C126.48195,21.2194 125.35635,20.2996 125.22825,19.0375" id="Fill-90"></path>
                    <path d="M116.52627,21.55792 C116.40657,20.35882 117.28017,19.28782 118.47927,19.16812 C119.67837,19.04632 120.74937,19.92202 120.86907,21.12112 C120.99087,22.32022 120.11517,23.38912 118.91607,23.51092 C117.71697,23.63062 116.64597,22.75702 116.52627,21.55792" id="Fill-92"></path>
                    <path d="M108.06684,23.45695 C107.92194,22.32085 108.72624,21.28345 109.86234,21.13855 C110.99844,20.99365 112.03584,21.79795 112.18074,22.93405 C112.32564,24.07015 111.52134,25.10755 110.38524,25.25245 C109.24914,25.39735 108.21174,24.59305 108.06684,23.45695" id="Fill-94"></path>
                    <path d="M99.27288,24.57856 C99.13638,23.49916 99.89868,22.51426 100.97808,22.37566 C102.05748,22.23916 103.04238,23.00146 103.18098,24.08086 C103.31748,25.16026 102.55518,26.14726 101.47578,26.28376 C100.39638,26.42026 99.40938,25.65796 99.27288,24.57856" id="Fill-96"></path>
                    <path d="M90.31785,25.29256 C90.18765,24.26776 90.91215,23.33116 91.93695,23.20096 C92.96385,23.07076 93.90045,23.79526 94.03065,24.82006 C94.16085,25.84486 93.43635,26.78146 92.40945,26.91166 C91.38465,27.04396 90.44805,26.31736 90.31785,25.29256" id="Fill-98"></path>
                    <path d="M81.01191,25.22074 C80.88801,24.24634 81.57681,23.35594 82.55121,23.23204 C83.52561,23.10814 84.41391,23.79904 84.53781,24.77134 C84.66171,25.74574 83.97291,26.63614 83.00061,26.76004 C82.02621,26.88394 81.13581,26.19514 81.01191,25.22074" id="Fill-100"></path>
                    <path d="M72.08586,24.58612 C71.96826,23.66002 72.62346,22.81582 73.54746,22.69822 C74.47356,22.58062 75.31776,23.23372 75.43536,24.15982 C75.55506,25.08592 74.89986,25.93012 73.97376,26.04772 C73.04976,26.16532 72.20346,25.51222 72.08586,24.58612" id="Fill-102"></path>
                </g>
            </g>
        </g>
    </g>
</svg>