<?xml version="1.0" encoding="UTF-8"?>
<svg width="34px" height="7px" viewBox="0 0 34 7" version="1.1" xmlns="http://www.w3.org/2000/svg" xmlns:xlink="http://www.w3.org/1999/xlink">
    <!-- Generator: Sketch 58 (84663) - https://sketch.com -->
    <title>Group 10</title>
    <desc>Created with Sketch.</desc>
    <defs>
        <polygon id="path-1" points="0.56800346 0.5236 7.50740065 0.5236 7.50740065 7 0.56800346 7"></polygon>
    </defs>
    <g id="Versuch-1" stroke="none" stroke-width="1" fill="none" fill-rule="evenodd">
        <g id="06-Ergebnisse" transform="translate(-186.000000, -362.000000)">
            <g id="Group-10" transform="translate(186.000000, 362.000000)">
                <g id="Group-3" transform="translate(26.000000, 0.000000)">
                    <mask id="mask-2" fill="white">
                        <use xlink:href="#path-1"></use>
                    </mask>
                    <g id="Clip-2"></g>
                    <path d="M0.77325,4.85576 C1.42125,6.53856 3.40725,7.41356 5.21025,6.80876 C7.01325,6.20396 7.94925,4.35036 7.30275,2.66756 C6.65475,0.98476 4.66875,0.11116 2.86575,0.71456 C1.06275,1.31936 0.12525,3.17296 0.77325,4.85576" id="Fill-1" fill="#252C5B" mask="url(#mask-2)"></path>
                </g>
                <path d="M16.1771686,5.01336566 C16.7365465,6.57313809 18.4552146,7.38220924 20.0133657,6.82283139 C21.5731381,6.26345355 22.3822092,4.54478538 21.8228314,2.98663434 C21.2634535,1.42686191 19.5464068,0.617790761 17.9866343,1.17716861 C16.4268619,1.73654645 15.6177908,3.45359323 16.1771686,5.01336566" id="Fill-4" fill="#252C5B"></path>
                <path d="M8.1181259,4.67552639 C8.49100278,5.71448597 9.63665351,6.25490708 10.675575,5.88201651 C11.7144964,5.50912595 12.2548977,4.3634332 11.8820208,3.32447361 C11.507793,2.28551403 10.3634932,1.74509292 9.32457176,2.11798349 C8.28429929,2.49087405 7.74524901,3.6365668 8.1181259,4.67552639" id="Fill-6" fill="#252C5B"></path>
                <path d="M0.118141027,4.67575546 C0.491306285,5.71458826 1.63613002,6.25511915 2.67457632,5.881815 C3.71471116,5.50851086 4.25504094,4.36326104 3.88187569,3.32442825 C3.50871043,2.28390629 2.3638867,1.74506456 1.32375186,2.11836871 C0.285305555,2.49167285 -0.255024231,3.63692267 0.118141027,4.67575546" id="Fill-8" fill="#252C5B"></path>
            </g>
        </g>
    </g>
</svg>