<?xml version="1.0" encoding="UTF-8"?>
<svg width="300px" height="7px" viewBox="0 0 300 7" version="1.1" xmlns="http://www.w3.org/2000/svg" xmlns:xlink="http://www.w3.org/1999/xlink">
    <!-- Generator: Sketch 57.1 (83088) - https://sketch.com -->
    <title>Trennpunkte 2</title>
    <desc>Created with Sketch.</desc>
    <defs>
        <polygon id="path-1" points="0.56800346 0.5236 7.50740065 0.5236 7.50740065 7 0.56800346 7"></polygon>
        <polygon id="path-3" points="0.56800346 0.5236 7.50740065 0.5236 7.50740065 7 0.56800346 7"></polygon>
        <polygon id="path-5" points="0.56800346 0.5236 7.50740065 0.5236 7.50740065 7 0.56800346 7"></polygon>
        <polygon id="path-7" points="0.56800346 0.5236 7.50740065 0.5236 7.50740065 7 0.56800346 7"></polygon>
        <polygon id="path-9" points="0.56800346 0.5236 7.50740065 0.5236 7.50740065 7 0.56800346 7"></polygon>
        <polygon id="path-11" points="0.56800346 0.5236 7.50740065 0.5236 7.50740065 7 0.56800346 7"></polygon>
        <polygon id="path-13" points="0.56800346 0.5236 7.50740065 0.5236 7.50740065 7 0.56800346 7"></polygon>
    </defs>
    <g id="Versuch-1" stroke="none" stroke-width="1" fill="none" fill-rule="evenodd">
        <g id="-01-Startseite-Mobil-Copy" transform="translate(-38.000000, -1535.000000)">
            <g id="Trennpunkte-2" transform="translate(38.000000, 1535.000000)">
                <g id="Trennpunkte">
                    <g id="Group-10">
                        <g id="Group-3" transform="translate(26.000000, 0.000000)">
                            <mask id="mask-2" fill="white">
                                <use xlink:href="#path-1"></use>
                            </mask>
                            <g id="Clip-2"></g>
                            <path d="M0.77325,4.85576 C1.42125,6.53856 3.40725,7.41356 5.21025,6.80876 C7.01325,6.20396 7.94925,4.35036 7.30275,2.66756 C6.65475,0.98476 4.66875,0.11116 2.86575,0.71456 C1.06275,1.31936 0.12525,3.17296 0.77325,4.85576" id="Fill-1" fill="#252C5B" mask="url(#mask-2)"></path>
                        </g>
                        <g id="Group-3" transform="translate(74.000000, 0.000000)">
                            <mask id="mask-4" fill="white">
                                <use xlink:href="#path-3"></use>
                            </mask>
                            <g id="Clip-2"></g>
                            <path d="M0.77325,4.85576 C1.42125,6.53856 3.40725,7.41356 5.21025,6.80876 C7.01325,6.20396 7.94925,4.35036 7.30275,2.66756 C6.65475,0.98476 4.66875,0.11116 2.86575,0.71456 C1.06275,1.31936 0.12525,3.17296 0.77325,4.85576" id="Fill-1" fill="#252C5B" mask="url(#mask-4)"></path>
                        </g>
                        <g id="Group-3" transform="translate(122.000000, 0.000000)">
                            <mask id="mask-6" fill="white">
                                <use xlink:href="#path-5"></use>
                            </mask>
                            <g id="Clip-2"></g>
                            <path d="M0.77325,4.85576 C1.42125,6.53856 3.40725,7.41356 5.21025,6.80876 C7.01325,6.20396 7.94925,4.35036 7.30275,2.66756 C6.65475,0.98476 4.66875,0.11116 2.86575,0.71456 C1.06275,1.31936 0.12525,3.17296 0.77325,4.85576" id="Fill-1" fill="#252C5B" mask="url(#mask-6)"></path>
                        </g>
                        <g id="Group-3" transform="translate(170.000000, 0.000000)">
                            <mask id="mask-8" fill="white">
                                <use xlink:href="#path-7"></use>
                            </mask>
                            <g id="Clip-2"></g>
                            <path d="M0.77325,4.85576 C1.42125,6.53856 3.40725,7.41356 5.21025,6.80876 C7.01325,6.20396 7.94925,4.35036 7.30275,2.66756 C6.65475,0.98476 4.66875,0.11116 2.86575,0.71456 C1.06275,1.31936 0.12525,3.17296 0.77325,4.85576" id="Fill-1" fill="#252C5B" mask="url(#mask-8)"></path>
                        </g>
                        <g id="Group-3" transform="translate(218.000000, 0.000000)">
                            <mask id="mask-10" fill="white">
                                <use xlink:href="#path-9"></use>
                            </mask>
                            <g id="Clip-2"></g>
                            <path d="M0.77325,4.85576 C1.42125,6.53856 3.40725,7.41356 5.21025,6.80876 C7.01325,6.20396 7.94925,4.35036 7.30275,2.66756 C6.65475,0.98476 4.66875,0.11116 2.86575,0.71456 C1.06275,1.31936 0.12525,3.17296 0.77325,4.85576" id="Fill-1" fill="#252C5B" mask="url(#mask-10)"></path>
                        </g>
                        <g id="Group-3" transform="translate(266.000000, 0.000000)">
                            <mask id="mask-12" fill="white">
                                <use xlink:href="#path-11"></use>
                            </mask>
                            <g id="Clip-2"></g>
                            <path d="M0.77325,4.85576 C1.42125,6.53856 3.40725,7.41356 5.21025,6.80876 C7.01325,6.20396 7.94925,4.35036 7.30275,2.66756 C6.65475,0.98476 4.66875,0.11116 2.86575,0.71456 C1.06275,1.31936 0.12525,3.17296 0.77325,4.85576" id="Fill-1" fill="#252C5B" mask="url(#mask-12)"></path>
                        </g>
                        <path d="M16.1771686,5.01336566 C16.7365465,6.57313809 18.4552146,7.38220924 20.0133657,6.82283139 C21.5731381,6.26345355 22.3822092,4.54478538 21.8228314,2.98663434 C21.2634535,1.42686191 19.5464068,0.617790761 17.9866343,1.17716861 C16.4268619,1.73654645 15.6177908,3.45359323 16.1771686,5.01336566" id="Fill-4" fill="#252C5B"></path>
                        <path d="M86.1771686,5.01336566 C86.7365465,6.57313809 88.4552146,7.38220924 90.0133657,6.82283139 C91.5731381,6.26345355 92.3822092,4.54478538 91.8228314,2.98663434 C91.2634535,1.42686191 89.5464068,0.617790761 87.9866343,1.17716861 C86.4268619,1.73654645 85.6177908,3.45359323 86.1771686,5.01336566" id="Fill-4" fill="#252C5B"></path>
                        <path d="M134.177169,5.01336566 C134.736546,6.57313809 136.455215,7.38220924 138.013366,6.82283139 C139.573138,6.26345355 140.382209,4.54478538 139.822831,2.98663434 C139.263454,1.42686191 137.546407,0.617790761 135.986634,1.17716861 C134.426862,1.73654645 133.617791,3.45359323 134.177169,5.01336566" id="Fill-4" fill="#252C5B"></path>
                        <path d="M160.177169,5.01336566 C160.736546,6.57313809 162.455215,7.38220924 164.013366,6.82283139 C165.573138,6.26345355 166.382209,4.54478538 165.822831,2.98663434 C165.263454,1.42686191 163.546407,0.617790761 161.986634,1.17716861 C160.426862,1.73654645 159.617791,3.45359323 160.177169,5.01336566" id="Fill-4" fill="#252C5B"></path>
                        <path d="M112.177169,5.01336566 C112.736546,6.57313809 114.455215,7.38220924 116.013366,6.82283139 C117.573138,6.26345355 118.382209,4.54478538 117.822831,2.98663434 C117.263454,1.42686191 115.546407,0.617790761 113.986634,1.17716861 C112.426862,1.73654645 111.617791,3.45359323 112.177169,5.01336566" id="Fill-4" fill="#252C5B"></path>
                        <path d="M182.177169,5.01336566 C182.736546,6.57313809 184.455215,7.38220924 186.013366,6.82283139 C187.573138,6.26345355 188.382209,4.54478538 187.822831,2.98663434 C187.263454,1.42686191 185.546407,0.617790761 183.986634,1.17716861 C182.426862,1.73654645 181.617791,3.45359323 182.177169,5.01336566" id="Fill-4" fill="#252C5B"></path>
                        <path d="M230.177169,5.01336566 C230.736546,6.57313809 232.455215,7.38220924 234.013366,6.82283139 C235.573138,6.26345355 236.382209,4.54478538 235.822831,2.98663434 C235.263454,1.42686191 233.546407,0.617790761 231.986634,1.17716861 C230.426862,1.73654645 229.617791,3.45359323 230.177169,5.01336566" id="Fill-4" fill="#252C5B"></path>
                        <path d="M256.177169,5.01336566 C256.736546,6.57313809 258.455215,7.38220924 260.013366,6.82283139 C261.573138,6.26345355 262.382209,4.54478538 261.822831,2.98663434 C261.263454,1.42686191 259.546407,0.617790761 257.986634,1.17716861 C256.426862,1.73654645 255.617791,3.45359323 256.177169,5.01336566" id="Fill-4" fill="#252C5B"></path>
                        <path d="M278.177169,5.01336566 C278.736546,6.57313809 280.455215,7.38220924 282.013366,6.82283139 C283.573138,6.26345355 284.382209,4.54478538 283.822831,2.98663434 C283.263454,1.42686191 281.546407,0.617790761 279.986634,1.17716861 C278.426862,1.73654645 277.617791,3.45359323 278.177169,5.01336566" id="Fill-4" fill="#252C5B"></path>
                        <g id="Group-3" transform="translate(218.000000, 0.000000)">
                            <mask id="mask-14" fill="white">
                                <use xlink:href="#path-13"></use>
                            </mask>
                            <g id="Clip-2"></g>
                            <path d="M0.77325,4.85576 C1.42125,6.53856 3.40725,7.41356 5.21025,6.80876 C7.01325,6.20396 7.94925,4.35036 7.30275,2.66756 C6.65475,0.98476 4.66875,0.11116 2.86575,0.71456 C1.06275,1.31936 0.12525,3.17296 0.77325,4.85576" id="Fill-1" fill="#252C5B" mask="url(#mask-14)"></path>
                        </g>
                        <path d="M208.177169,5.01336566 C208.736546,6.57313809 210.455215,7.38220924 212.013366,6.82283139 C213.573138,6.26345355 214.382209,4.54478538 213.822831,2.98663434 C213.263454,1.42686191 211.546407,0.617790761 209.986634,1.17716861 C208.426862,1.73654645 207.617791,3.45359323 208.177169,5.01336566" id="Fill-4" fill="#252C5B"></path>
                        <path d="M42.0133657,6.82283139 C43.5731381,6.26345355 44.3822092,4.54478538 43.8228314,2.98663434 C43.2634535,1.42686191 41.5464068,0.617790761 39.9866343,1.17716861 C38.4268619,1.73654645 37.6177908,3.45359323 38.1771686,5.01336566 C38.7365465,6.57313809 40.4552146,7.38220924 42.0133657,6.82283139 Z" id="Fill-4" fill="#252C5B"></path>
                        <path d="M68.0133657,6.82283139 C69.5731381,6.26345355 70.3822092,4.54478538 69.8228314,2.98663434 C69.2634535,1.42686191 67.5464068,0.617790761 65.9866343,1.17716861 C64.4268619,1.73654645 63.6177908,3.45359323 64.1771686,5.01336566 C64.7365465,6.57313809 66.4552146,7.38220924 68.0133657,6.82283139 Z" id="Fill-4" fill="#252C5B"></path>
                        <path d="M10.675575,5.88201651 C11.7144964,5.50912595 12.2548977,4.3634332 11.8820208,3.32447361 C11.507793,2.28551403 10.3634932,1.74509292 9.32457176,2.11798349 C8.28429929,2.49087405 7.74524901,3.6365668 8.1181259,4.67552639 C8.49100278,5.71448597 9.63665351,6.25490708 10.675575,5.88201651 Z" id="Fill-6" fill="#252C5B"></path>
                        <path d="M48.1181259,4.67552639 C48.4910028,5.71448597 49.6366535,6.25490708 50.675575,5.88201651 C51.7144964,5.50912595 52.2548977,4.3634332 51.8820208,3.32447361 C51.507793,2.28551403 50.3634932,1.74509292 49.3245718,2.11798349 C48.2842993,2.49087405 47.745249,3.6365668 48.1181259,4.67552639" id="Fill-6" fill="#252C5B"></path>
                        <path d="M0.118141027,4.67575546 C0.491306285,5.71458826 1.63613002,6.25511915 2.67457632,5.881815 C3.71471116,5.50851086 4.25504094,4.36326104 3.88187569,3.32442825 C3.50871043,2.28390629 2.3638867,1.74506456 1.32375186,2.11836871 C0.285305555,2.49167285 -0.255024231,3.63692267 0.118141027,4.67575546" id="Fill-8" fill="#252C5B"></path>
                        <path d="M56.118141,4.67575546 C56.4913063,5.71458826 57.63613,6.25511915 58.6745763,5.881815 C59.7147112,5.50851086 60.2550409,4.36326104 59.8818757,3.32442825 C59.5087104,2.28390629 58.3638867,1.74506456 57.3237519,2.11836871 C56.2853056,2.49167285 55.7449758,3.63692267 56.118141,4.67575546" id="Fill-8" fill="#252C5B"></path>
                        <path d="M96.118141,4.67575546 C96.4913063,5.71458826 97.63613,6.25511915 98.6745763,5.881815 C99.7147112,5.50851086 100.255041,4.36326104 99.8818757,3.32442825 C99.5087104,2.28390629 98.3638867,1.74506456 97.3237519,2.11836871 C96.2853056,2.49167285 95.7449758,3.63692267 96.118141,4.67575546" id="Fill-8" fill="#252C5B"></path>
                        <path d="M152.118141,4.67575546 C152.491306,5.71458826 153.63613,6.25511915 154.674576,5.881815 C155.714711,5.50851086 156.255041,4.36326104 155.881876,3.32442825 C155.50871,2.28390629 154.363887,1.74506456 153.323752,2.11836871 C152.285306,2.49167285 151.744976,3.63692267 152.118141,4.67575546" id="Fill-8" fill="#252C5B"></path>
                        <path d="M192.118141,4.67575546 C192.491306,5.71458826 193.63613,6.25511915 194.674576,5.881815 C195.714711,5.50851086 196.255041,4.36326104 195.881876,3.32442825 C195.50871,2.28390629 194.363887,1.74506456 193.323752,2.11836871 C192.285306,2.49167285 191.744976,3.63692267 192.118141,4.67575546" id="Fill-8" fill="#252C5B"></path>
                        <path d="M200.118141,4.67575546 C200.491306,5.71458826 201.63613,6.25511915 202.674576,5.881815 C203.714711,5.50851086 204.255041,4.36326104 203.881876,3.32442825 C203.50871,2.28390629 202.363887,1.74506456 201.323752,2.11836871 C200.285306,2.49167285 199.744976,3.63692267 200.118141,4.67575546" id="Fill-8" fill="#252C5B"></path>
                        <path d="M240.118141,4.67575546 C240.491306,5.71458826 241.63613,6.25511915 242.674576,5.881815 C243.714711,5.50851086 244.255041,4.36326104 243.881876,3.32442825 C243.50871,2.28390629 242.363887,1.74506456 241.323752,2.11836871 C240.285306,2.49167285 239.744976,3.63692267 240.118141,4.67575546" id="Fill-8" fill="#252C5B"></path>
                        <path d="M248.118141,4.67575546 C248.491306,5.71458826 249.63613,6.25511915 250.674576,5.881815 C251.714711,5.50851086 252.255041,4.36326104 251.881876,3.32442825 C251.50871,2.28390629 250.363887,1.74506456 249.323752,2.11836871 C248.285306,2.49167285 247.744976,3.63692267 248.118141,4.67575546" id="Fill-8" fill="#252C5B"></path>
                        <path d="M288.118141,4.67575546 C288.491306,5.71458826 289.63613,6.25511915 290.674576,5.881815 C291.714711,5.50851086 292.255041,4.36326104 291.881876,3.32442825 C291.50871,2.28390629 290.363887,1.74506456 289.323752,2.11836871 C288.285306,2.49167285 287.744976,3.63692267 288.118141,4.67575546" id="Fill-8" fill="#252C5B"></path>
                        <path d="M296.118141,4.67575546 C296.491306,5.71458826 297.63613,6.25511915 298.674576,5.881815 C299.714711,5.50851086 300.255041,4.36326104 299.881876,3.32442825 C299.50871,2.28390629 298.363887,1.74506456 297.323752,2.11836871 C296.285306,2.49167285 295.744976,3.63692267 296.118141,4.67575546" id="Fill-8" fill="#252C5B"></path>
                        <path d="M104.118141,4.67575546 C104.491306,5.71458826 105.63613,6.25511915 106.674576,5.881815 C107.714711,5.50851086 108.255041,4.36326104 107.881876,3.32442825 C107.50871,2.28390629 106.363887,1.74506456 105.323752,2.11836871 C104.285306,2.49167285 103.744976,3.63692267 104.118141,4.67575546" id="Fill-8" fill="#252C5B"></path>
                        <path d="M144.118141,4.67575546 C144.491306,5.71458826 145.63613,6.25511915 146.674576,5.881815 C147.714711,5.50851086 148.255041,4.36326104 147.881876,3.32442825 C147.50871,2.28390629 146.363887,1.74506456 145.323752,2.11836871 C144.285306,2.49167285 143.744976,3.63692267 144.118141,4.67575546" id="Fill-8" fill="#252C5B"></path>
                    </g>
                </g>
            </g>
        </g>
    </g>
</svg>