<?xml version="1.0" encoding="UTF-8"?>
<svg width="81px" height="82px" viewBox="0 0 81 82" version="1.1" xmlns="http://www.w3.org/2000/svg" xmlns:xlink="http://www.w3.org/1999/xlink">
    <!-- Generator: Sketch 58 (84663) - https://sketch.com -->
    <title>Group 7</title>
    <desc>Created with Sketch.</desc>
    <g id="Versuch-1" stroke="none" stroke-width="1" fill="none" fill-rule="evenodd">
        <g id="08-Daten-und-Fakten" transform="translate(-1135.000000, -273.000000)" fill="#252C5B" fill-rule="nonzero">
            <g id="Group-2" transform="translate(1033.000000, 273.000000)">
                <g id="Group-7" transform="translate(101.495062, 0.000000)">
                    <g id="teilnehmer" transform="translate(23.080150, 18.111111)">
                        <path d="M17.2899717,25.9242574 C22.812075,25.9242574 26.4667034,21.2234113 27.3301596,12.9969305 C27.9131263,9.48176107 26.9938746,5.88187296 24.8000322,3.08868148 C22.8576492,1.01183992 20.1174648,-0.111905675 17.2899717,0.00881674775 C14.4624786,-0.111905675 11.7222941,1.01183992 9.77991111,3.08868148 C7.58837361,5.88302814 6.66938808,9.48187365 7.24978376,12.9969305 C8.07307917,21.203149 11.7678683,25.9242574 17.2899717,25.9242574 Z M12.3100385,5.37831775 C13.5942562,3.99725791 15.4155591,3.2562093 17.2899717,3.35209096 C19.1643843,3.2562093 20.9856871,3.99725791 22.2699049,5.37831775 C23.8071378,7.45449817 24.4182919,10.0827727 23.9566564,12.6322097 C23.5751293,16.2186311 22.1293422,22.4796719 17.2899717,22.4796719 C12.4506011,22.4796719 11.004814,16.2186311 10.6232869,12.6322097 C10.1616514,10.0827727 10.7728056,7.45449817 12.3100385,5.37831775 Z" id="Shape"></path>
                        <path d="M33.9278321,32.8736353 L33.9278321,32.5872566 C33.5056535,29.9075695 32.9025411,26.2460124 30.5705067,24.4050061 C29.6235424,23.6928185 28.5624502,23.1529861 27.4343225,22.8094672 L26.368824,22.4003547 L25.0419768,25.5914324 L26.3085127,26.0823674 C27.0751116,26.3028935 27.8015497,26.6482922 28.4596135,27.1051487 C29.7864607,28.1892969 30.2689505,31.196274 30.5906105,33.2418366 L30.5906105,33.5282154 C30.9081591,35.4429512 31.1029068,37.3766848 31.1736191,39.3171576 C31.1898958,39.4393326 31.1898958,39.5631838 31.1736191,39.6853589 C31.1736191,39.6853589 30.8318554,39.6853589 30.5705067,39.8490039 C29.1183303,40.4179461 27.6265274,40.8760553 26.1074753,41.2195308 C23.2306081,41.9442679 20.28489,42.3489347 17.3221387,42.4264128 C14.3728669,42.3459864 11.4407855,41.941341 8.57700954,41.2195308 C7.10028275,40.8907547 5.64899071,40.4532156 4.2346006,39.9103708 L3.47065828,39.5830807 C3.47065828,39.5830807 3.47065828,39.460347 3.47065828,39.3171576 C3.5312737,37.3497743 3.71931656,35.3885986 4.03356314,33.4463929 L4.03356314,33.1395585 C4.35522307,31.0939958 4.83771295,28.12793 6.16456013,27.0028706 C6.81628555,26.5476834 7.53584127,26.2023295 8.29555711,25.9800893 L9.56209305,25.4891542 L8.25534962,22.3389878 L7.18985113,22.7481003 C6.05907238,23.0615894 4.9908859,23.5738783 4.03356314,24.2618167 C1.70152871,26.3073793 1.1185201,29.9075695 0.676237708,32.5668009 L0.676237708,32.8736353 C0.322794987,34.9365138 0.101188865,37.0205414 0.0128141189,39.1126013 C-0.138591155,40.938276 1.06682205,42.5940671 2.82733844,42.9787147 C4.43650581,43.6078725 6.08961163,44.1138521 7.77285974,44.492431 C10.8872547,45.2715308 14.0756954,45.70364 17.2819312,45.7811355 C20.4949051,45.7051216 23.6901652,45.2730017 26.8111064,44.492431 C28.4522928,44.1295987 30.0649617,43.6441669 31.6360052,43.0400816 C33.44588,42.6824127 34.7068336,41.0039356 34.571152,39.133057 C34.4912055,37.0345329 34.2763059,34.9435866 33.9278321,32.8736353 Z" id="Path"></path>
                    </g>
                    <path d="M81.0138852,40.749146 C81.0138852,18.243597 62.9899406,0 40.7565365,0 C18.5214152,0 0.495812881,18.243627 0.495812881,40.749146 C0.495812881,63.2549696 18.5217162,81.5 40.7565365,81.5 C62.9896396,81.5 81.0138852,63.2549996 81.0138852,40.749146 Z M77.9185244,40.749146 C77.9185244,61.5246676 61.2800831,78.3668909 40.7565365,78.3668909 C20.2312101,78.3668909 3.59117366,61.5245743 3.59117366,40.749146 C3.59117366,19.9740646 20.2308674,3.13310908 40.7565365,3.13310908 C61.2804259,3.13310908 77.9185244,19.9739712 77.9185244,40.749146 Z" id="Fill-1-Copy-2"></path>
                </g>
            </g>
        </g>
    </g>
</svg>