<?xml version="1.0" encoding="UTF-8"?>
<svg width="82px" height="82px" viewBox="0 0 82 82" version="1.1" xmlns="http://www.w3.org/2000/svg" xmlns:xlink="http://www.w3.org/1999/xlink">
    <!-- Generator: Sketch 58 (84663) - https://sketch.com -->
    <title>Group 20</title>
    <desc>Created with Sketch.</desc>
    <g id="Versuch-1" stroke="none" stroke-width="1" fill="none" fill-rule="evenodd">
        <g id="08-Daten-und-Fakten" transform="translate(-530.000000, -273.000000)" fill="#252C5B">
            <g id="Group-4" transform="translate(455.000000, 273.000000)">
                <g id="Group-20" transform="translate(75.000000, 0.000000)">
                    <path d="M40.8996,81.6872 C18.3731698,81.6872 0.112,63.4260302 0.112,40.8996 C0.112,18.3731698 18.3731698,0.112 40.8996,0.112 C63.4260302,0.112 81.6872,18.3731698 81.6872,40.8996 C81.6872,63.4260302 63.4260302,81.6872 40.8996,81.6872 Z M40.8996,78.5512 C61.6940653,78.5512 78.5512,61.6940653 78.5512,40.8996 C78.5512,20.1051347 61.6940653,3.248 40.8996,3.248 C20.1051347,3.248 3.248,20.1051347 3.248,40.8996 C3.248,61.6940653 20.1051347,78.5512 40.8996,78.5512 Z" id="Fill-1" fill-rule="nonzero"></path>
                    <path d="M39.1436249,10.1472 C57.0861648,10.1472 71.6313761,24.4304466 71.6313761,42.0498346 L39.1434985,42.0492 L39.1436249,10.1472 L39.1436249,10.1472 Z" id="Combined-Shape"></path>
                    <ellipse id="Oval-3-Copy-5" cx="13.2636" cy="41.561299" rx="1.8228" ry="1.66905327"></ellipse>
                    <ellipse id="Oval-3" transform="translate(64.360800, 55.272459) rotate(30.000000) translate(-64.360800, -55.272459) " cx="64.3608" cy="55.2724594" rx="1.764" ry="1.80767305"></ellipse>
                    <ellipse id="Oval-3-Copy-5" transform="translate(17.379600, 28.157364) rotate(30.000000) translate(-17.379600, -28.157364) " cx="17.3796" cy="28.1573637" rx="1.8228" ry="1.80767305"></ellipse>
                    <ellipse id="Oval-3" transform="translate(54.423600, 65.197273) rotate(60.000000) translate(-54.423600, -65.197273) " cx="54.4236" cy="65.1972733" rx="1.8228" ry="1.80767305"></ellipse>
                    <ellipse id="Oval-3-Copy-5" transform="translate(27.316800, 18.232550) rotate(60.000000) translate(-27.316800, -18.232550) " cx="27.3168" cy="18.2325498" rx="1.764" ry="1.80767305"></ellipse>
                    <ellipse id="Oval-3" transform="translate(41.664000, 69.631740) rotate(90.000000) translate(-41.664000, -69.631740) " cx="41.664" cy="69.6317404" rx="1.6464" ry="1.82078539"></ellipse>
                    <ellipse id="Oval-3" transform="translate(27.316800, 65.197273) rotate(120.000000) translate(-27.316800, -65.197273) " cx="27.3168" cy="65.1972733" rx="1.764" ry="1.80767305"></ellipse>
                    <ellipse id="Oval-3" transform="translate(17.379600, 55.272459) rotate(150.000000) translate(-17.379600, -55.272459) " cx="17.3796" cy="55.2724594" rx="1.8228" ry="1.80767305"></ellipse>
                </g>
            </g>
        </g>
    </g>
</svg>