<?xml version="1.0" encoding="UTF-8"?>
<svg width="82px" height="83px" viewBox="0 0 82 83" version="1.1" xmlns="http://www.w3.org/2000/svg" xmlns:xlink="http://www.w3.org/1999/xlink">
    <!-- Generator: Sketch 58 (84663) - https://sketch.com -->
    <title>Group 5 Copy</title>
    <desc>Created with Sketch.</desc>
    <g id="Versuch-1" stroke="none" stroke-width="1" fill="none" fill-rule="evenodd">
        <g id="08-Daten-und-Fakten" transform="translate(-220.000000, -273.000000)" fill="#252C5B">
            <g id="Group-5-Copy" transform="translate(220.000000, 273.000000)">
                <g id="Referenten_kein-Kreis" transform="translate(16.820000, 16.980000)">
                    <path d="M35.1036684,49.88 C37.2711797,49.861569 39.628612,49.5420986 42.5226465,48.8785833 C43.9455469,48.5498974 45.1815408,48.1812777 46.3843739,47.705144 C47.2797159,47.3518835 48.7870255,46.7651639 48.7176893,44.4827938 C48.6694554,42.9499503 48.5066659,41.3188083 48.2353502,39.638517 L48.1991748,39.4173452 C47.8615374,37.3162132 47.3942714,34.4317643 45.5010904,32.8897054 C44.6931725,32.2292618 43.7887867,31.9097915 42.9929272,31.6271831 C42.7185968,31.5288845 42.4442664,31.4336577 42.1850092,31.32 L40.967103,34.238239 C41.2896672,34.3764714 41.6212754,34.4962728 41.9558981,34.6130023 C42.5708805,34.8341741 43.1496874,35.0399868 43.5415879,35.3594571 C44.5002368,36.1397021 44.8680204,38.4190003 45.1122046,39.9272691 L45.1453654,40.1515127 C45.3985934,41.6966435 45.5463097,43.1895531 45.5885144,44.5810924 C45.591529,44.5933797 45.591529,44.605667 45.591529,44.6148825 C45.4799881,44.6640318 45.3232279,44.7223966 45.1574238,44.786905 C44.1927457,45.167812 43.1044681,45.4964978 41.8292841,45.7883217 C39.161346,46.4026879 37.014937,46.6975836 35.1036684,46.7129427 C33.1652681,46.6975836 31.0188592,46.4026879 28.3479064,45.7883217 C27.0757371,45.4964978 25.9874595,45.167812 24.9202843,44.750043 C24.8177872,44.7101092 24.6911732,44.6609599 24.5886761,44.6179543 C24.5886761,44.605667 24.5886761,44.5933797 24.5916907,44.5841642 C24.6338954,43.1803376 24.7846264,41.6904998 25.0318252,40.1515127 L25.0710152,39.91191 C25.3151994,38.406713 25.6799683,36.1335584 26.6356027,35.362529 C27.0275032,35.0399868 27.6093247,34.8341741 28.224307,34.6130023 C28.5589298,34.4962728 28.8905379,34.3764714 29.2131022,34.238239 L27.995196,31.32 C27.7359387,31.4336577 27.4616084,31.5288845 27.187278,31.6271831 C26.3914185,31.9097915 25.4870327,32.2292618 24.6730855,32.8897054 C22.7889484,34.4286925 22.324697,37.300854 21.984045,39.3989143 L21.944855,39.638517 C21.6735392,41.3095929 21.5107498,42.9407349 21.4625159,44.4827938 C21.390165,46.762092 22.8944601,47.3518835 23.8892844,47.7389341 C25.001679,48.1782059 26.2316437,48.5498974 27.654544,48.8755114 C30.5485786,49.5420986 32.9060109,49.861569 35.1036684,49.88 L35.1036684,49.88 Z M27.4715355,2.9426277 C27.754559,2.9426277 27.9858469,3.17716232 27.9858469,3.46798524 C27.9858469,3.64935868 27.8884625,3.81509648 27.7302129,3.90891033 L27.1276468,4.26227582 L27.1276468,13.7812543 C27.8275973,13.0745233 28.9749074,12.2176901 29.8817998,11.7924007 L29.8817998,5.56941544 C30.4235006,5.01591373 30.74,4.26227582 30.74,3.46798524 C30.74,1.21958002 29.4283536,0 27.8184675,0 L2.92457578,0 C1.31164637,0 0,1.08511351 0,3.46798524 C0,4.26227582 0.316499356,5.01591373 0.858200178,5.56941544 L0.858200178,28.8821566 C0.858200178,30.2174404 1.92942877,31.3119353 3.24107514,31.3119353 L8.46940105,31.3119353 L5.48396,41.8409762 C5.23441243,42.788496 5.78524305,43.76416 6.71648154,44.0205846 C6.86864469,44.0612372 7.17601426,44.08 7.32817741,44.08 C8.0950797,44.08 8.80111672,43.5546425 9.00805861,42.7603519 L12.1487061,31.6809364 L18.5760776,31.6809364 L19.9607623,36.1746198 C20.2620453,34.6048014 21.5949946,32.2719637 22.456238,31.5277072 C23.1744481,30.9054086 24.6260845,30.111118 25.3229918,29.8578207 C25.4721117,29.8046595 25.615145,29.745244 25.7612217,29.6920829 C25.615145,29.3199546 25.4781982,28.9290636 25.3503812,28.525664 L3.77364617,28.525664 L3.77364617,4.26227582 L3.17108009,3.90891033 C3.01283041,3.81509648 2.915446,3.64935868 2.915446,3.46798524 C2.915446,3.17716232 3.14673399,2.9426277 3.42975745,2.9426277 L27.4715355,2.9426277 L27.4715355,2.9426277 Z M34.7999002,34.22 C39.2239027,34.2168966 42.1501333,30.4306897 42.83724,23.8296552 C43.1777797,20.5493103 42.4605368,17.7127586 40.8120835,15.8351724 C39.3775976,14.2027586 37.2951823,13.34 34.7999002,13.34 C32.3076317,13.34 30.2252163,14.2027586 28.7877169,15.8382759 C27.1422772,17.7127586 26.4220207,20.5524138 26.7625604,23.8296552 C27.4526807,30.4337931 30.3789112,34.22 34.7999002,34.22 L34.7999002,34.22 Z M34.5094498,16.24 C36.0982251,16.24 37.3210465,16.7247835 38.151137,17.6819203 C39.1805681,18.8752336 39.6179276,20.8361209 39.3739584,23.204102 C39.0853606,26.0195757 38.0708056,30.74 34.5094498,30.74 C30.9510693,30.74 29.9365143,26.0195757 29.6449413,23.204102 C29.4039473,20.8361209 29.8383315,18.8752336 30.8707379,17.6850279 C31.7008284,16.7247835 32.9236498,16.24 34.5094498,16.24 L34.5094498,16.24 Z M20.9944312,22.62 C21.8911933,22.62 22.62,21.8409436 22.62,20.8816096 C22.62,19.9158372 21.8911933,19.14 20.9944312,19.14 L9.17156722,19.14 C8.27180589,19.14 7.54,19.9158372 7.54,20.8816096 C7.54,21.8409436 8.27180589,22.62 9.17156722,22.62 L20.9944312,22.62 Z M15.1061439,16.24 C16.0528743,16.24 16.82,15.4588408 16.82,14.5016007 C16.82,13.5379577 16.0528743,12.76 15.1061439,12.76 L8.67385613,12.76 C7.72408151,12.76 6.96,13.5379577 6.96,14.5016007 C6.96,15.4588408 7.72712566,16.24 8.67385613,16.24 L15.1061439,16.24 Z" id="Shape"></path>
                </g>
                <path d="M81.78,41.179137 C81.78,18.4361061 63.4735734,0 40.8917139,0 C18.3081104,0 0,18.4361364 0,41.179137 C0,63.9224454 18.3084161,82.36 40.8917139,82.36 C63.4732676,82.36 81.78,63.9224757 81.78,41.179137 Z M78.4,40.9891375 C78.4,61.9707245 61.5214424,78.98 40.7017118,78.98 C19.8801758,78.98 3,61.9706302 3,40.9891375 C3,20.0079951 19.8798281,3 40.7017118,3 C61.5217901,3 78.4,20.0079009 78.4,40.9891375 Z" id="Fill-1-Copy-4" fill-rule="nonzero"></path>
            </g>
        </g>
    </g>
</svg>