<?xml version="1.0" encoding="UTF-8"?>
<svg width="82px" height="82px" viewBox="0 0 82 82" version="1.1" xmlns="http://www.w3.org/2000/svg" xmlns:xlink="http://www.w3.org/1999/xlink">
    <!-- Generator: Sketch 58 (84663) - https://sketch.com -->
    <title>Group</title>
    <desc>Created with Sketch.</desc>
    <g id="Versuch-1" stroke="none" stroke-width="1" fill="none" fill-rule="evenodd">
        <g id="08-Daten-und-Fakten" transform="translate(-819.000000, -273.000000)" fill="#252C5B">
            <g id="Group-3" transform="translate(746.000000, 273.000000)">
                <g id="Group" transform="translate(72.500000, 0.000000)">
                    <path d="M81.9940476,40.749146 C81.9940476,18.243597 63.7502989,0 41.2457556,0 C18.7394743,0 0.494047619,18.243627 0.494047619,40.749146 C0.494047619,63.2549696 18.739779,81.5 41.2457556,81.5 C63.7499942,81.5 81.9940476,63.2549996 81.9940476,40.749146 Z M78.8609385,40.749146 C78.8609385,61.5246676 62.0195894,78.3668909 41.2457556,78.3668909 C20.4701204,78.3668909 3.6271567,61.5245743 3.6271567,40.749146 C3.6271567,19.9740646 20.4697735,3.13310908 41.2457556,3.13310908 C62.0199364,3.13310908 78.8609385,19.9739712 78.8609385,40.749146 Z" id="Fill-1" fill-rule="nonzero"></path>
                    <path d="M36.3272945,47.2857143 L47.3344244,47.2857143 L48.279481,43.1714286 L36.1049283,43.1714286 L36.1049283,38.6 L49.2245376,38.6 L50.2807774,34.4285714 L36.4384777,34.4285714 C37.8282668,28.9428571 40.8302113,26.5428571 44.7216209,26.5428571 C47.6679738,26.5428571 49.7804533,27.2857143 52.2264822,28.8857143 L54.8392857,24.2571429 C51.9485243,22.2571429 48.668622,21 44.443663,21 C37.0499849,21 31.1016874,25.9142857 29.1003911,34.4285714 L25.2089815,34.4285714 L24.2083333,38.6 L28.8224332,38.6 L28.8224332,43.1714286 L25.2089815,43.1714286 L24.2083333,47.2857143 L28.9892079,47.2857143 C30.6013633,56.0857143 35.9937451,61 44.2212968,61 C47.6123822,61 50.2251858,60.1428571 52.9491725,58.8285714 L52.9491725,53 C50.6699183,54.3142857 48.1127063,55.4 44.9995787,55.4 C40.1631125,55.4 37.3279427,52.9428571 36.3272945,47.2857143 Z" id="€"></path>
                </g>
            </g>
        </g>
    </g>
</svg>