<svg xmlns="http://www.w3.org/2000/svg" width="129.479" height="207.309" viewBox="0 0 129.479 207.309">
  <g id="Gruppe_138" data-name="Gruppe 138" transform="matrix(0.999, 0.035, -0.035, 0.999, 7.09, 0)">
    <path id="Pfad_33" data-name="Pfad 33" d="M756.431,209.642c.832,2.845,1.69,5.682,2.484,8.538a1.7,1.7,0,0,0,2.454,1.385c.747-.232,1.507-.421,2.143-.6,4.544,14.661,7.358,29.579,7.241,44.964-.108,14.246-.827,28.464-3.282,42.506-1.692,9.68-4,19.251-6.044,28.869-.875,4.117-1.832,8.217-2.646,12.345-.482,2.447-.133,2.855,2.331,3.287a19.3,19.3,0,0,0,2.9.285c1.958.043,2.553-.437,2.892-2.341.684-3.837,1.254-7.7,2.009-11.519.78-3.95,1.881-7.841,2.57-11.805,2.727-15.678,5.127-31.4,6.157-47.3.043-.658.062-1.318.1-2.124a98.383,98.383,0,0,0,25.807,5.161c.044.872.114,1.744.127,2.618.089,5.8.191,11.61.24,17.415.086,9.884.123,19.769.206,29.654.061,7.224.256,14.448.213,21.671-.03,5.137-.328,10.273-.565,15.407-.106,2.3.558,3.823,2.141,4.438a4.622,4.622,0,0,0,5-1.594,3.067,3.067,0,0,0,.406-1.729c.118-13.694.263-27.388.3-41.082.033-14.094-.05-28.188-.081-42.282,0-1.452,0-2.9,0-4.4h4.622c0,.531-.007.962,0,1.392q.219,11.96.441,23.92c.117,6.6.244,13.207.322,19.81.046,3.854-.046,7.711.021,11.564.029,1.654.586,2.078,2.225,2.126a13.259,13.259,0,0,0,1.329-.031c2.654-.187,3.039-.742,3.011-3.352-.06-5.674.065-11.349,0-17.023-.1-8.772-.331-17.542-.459-26.313-.06-4.153-.01-8.308-.01-12.462,6.589-.535,12.981-1.071,19.376-1.568a95.065,95.065,0,0,0,18.783-3.779c-.207,9.594-.432,18.974-.606,28.355-.125,6.777.078,13.571-.333,20.329-.576,9.488.5,18.853,1.42,28.241a31.9,31.9,0,0,0,1.171,5.033,1.808,1.808,0,0,0,.754,1.04,4.826,4.826,0,0,0,4.475.265,3.227,3.227,0,0,0,1.471-3.35c-.216-2.872-.449-5.747-.8-8.606a183.035,183.035,0,0,1-1.1-29.988c.4-9.339.649-18.684.9-28.028.193-7.13.281-14.263.431-21.395.028-1.328.105-2.657.2-3.982.058-.8-.22-1.277-1.036-1.4a9.439,9.439,0,0,0-1.961-.309,10.8,10.8,0,0,1-5.068-1.233c-5.152-2.24-10.656-2.978-16.188-3.366-6.939-.487-13.892-.8-20.843-1.088-1.214-.051-1.461-.458-1.453-1.551q.11-14.625.136-29.25c.006-3.367-.1-6.734-.149-10.1-.007-.476,0-.952,0-1.669,2.078,0,4.064.076,6.04-.024a38.131,38.131,0,0,0,4.735-.587,2.778,2.778,0,0,0,2.485-2.558c.464-3.779,1.063-7.546,1.374-11.337.564-6.883.907-13.784,1.441-20.669.322-4.146-2.236-5.6-6.158-5.436-.487.02-.972.1-1.458.1-2.743.01-5.487,0-8.284,0-.265-.9-.265-2.459-1.021-3.048-.826-.643-2.354-.5-3.574-.5-2.914.015-2.652,2.218-2.588,4.2-2.331.127-4.532.275-6.735.362-11.2.443-22.411.848-33.614,1.314-5.312.221-10.62.517-15.926.851-.987.062-1.46-.13-1.837-1.113-1.141-2.973-2.58-3.742-5.515-3.177-1.3.25-1.649.751-1.317,2.059.3,1.194.689,2.367,1.061,3.625-.9.274-1.737.521-2.568.783-2.1.662-2.377,1.022-1.791,3.179,1.325,4.871,2.625,9.755,4.172,14.558,1.422,4.416,3.152,8.734,4.746,13.094a4.484,4.484,0,0,0-.1-.914c-1.276-3.894-2.62-7.765-3.84-11.676-1.337-4.285-2.563-8.606-3.836-12.912-.27-1.012-.557-2.019-.809-3.035-.215-.868.216-1.3,1.033-1.513,1.056-.28,2.083-.67,3.141-.937a17.881,17.881,0,0,1,2.029-.284,14.58,14.58,0,0,1-4.095,1.494,1.658,1.658,0,0,0-1.524,2.225c.118.682.135,1.383.2,2.075.273.614.587,1.213.814,1.844q2.319,6.468,4.607,12.948c-.111-.471-.186-.953-.338-1.41-.756-2.266-1.6-4.506-2.286-6.791-.87-2.88-1.633-5.794-2.423-8.7-.183-.674-.242-1.346.66-1.6,1.74-.487,3.478-.977,5.326-1.5.6,2.007,1.143,3.955,1.758,5.881,1.752,5.483,3.533,10.956,5.3,16.434,1.386,4.3,2.858,8.566,4.121,12.9.995,3.414.452,4.073-3.1,4.573-1.74.245-2.318-.054-2.881-1.763-.539-1.638-.871-3.346-1.43-4.976-1.03-3-2.16-5.971-3.248-8.954l5.124,16.582c-.364-.339-.824-.579-.981-.948-.433-1.013-.733-2.082-1.1-3.125Q757.426,212.438,756.431,209.642Zm61.446,109.093-.011.017a8.346,8.346,0,0,1-.592-1.981c-.165-3.807-.3-7.617-.356-11.427-.118-7.707-.183-15.415-.26-23.123a3.811,3.811,0,0,1,.152-.774l.326.022v9.121l.229,0v-9.149l5.623-.321c-.353.686-.645,1.009-.678,1.358-.139,1.47-.2,2.947-.29,4.421l.038,0q.138-1.243.278-2.486a55.5,55.5,0,0,1,.279,6.542c.036,5.1.1,10.19.125,15.285.009,1.767-.117,3.535-.078,5.3.077,3.542.265,7.082.335,10.625.1,5.18.146,10.361.188,15.542a1.71,1.71,0,0,1-.341,1.2,4.7,4.7,0,0,1-4.414.579c-1.33-.364-1.187-1.534-1.186-2.516,0-5.228.033-10.456.117-15.683A13.751,13.751,0,0,1,817.876,318.736ZM773.428,273.66a5.693,5.693,0,0,1-.97-4.013c.047-1.955.012-3.912.012-5.868a10.671,10.671,0,0,0,7.294,4.279c4.52.835,9.071,1.519,13.624,2.16,3.358.472,6.74.774,10.137,1.155v9.573c-.586-.048-1.063-.064-1.535-.129-3.027-.413-6.048-.861-9.078-1.253a67.907,67.907,0,0,1-16.587-4.476l.665,2.567.159-1.249c-.267,5.537-.586,11.073-1.3,16.557-1.2,9.174-2.486,18.345-4.059,27.462-1.58,9.156-3.542,18.246-5.376,27.357a11.976,11.976,0,0,1-.944,2.31c-.03.069-.191.082-.349.143l.161-1.17c-.233,1.786-1.43,1.762-2.746,1.54-.48-.081-.965-.141-1.441-.238-1.548-.315-2.036-1-1.778-2.448.093-.523.151-1.053.267-1.571,1.781-7.946,3.5-15.905,5.372-23.831a236.914,236.914,0,0,0,5.228-33.575c.84-9.516.716-19.118.964-28.683a81.9,81.9,0,0,0-.107-8.6c-.195-2.441-.9-4.838-1.2-7.276a141,141,0,0,0-4.976-22.4c-.31-1.046-.471-2.136-.743-3.4.687-.035,1.461.128,1.627-.118.615-.915,1.535-1.686,1.068-3.127-1.757-5.43-3.361-10.909-5.054-16.36-1.957-6.3-3.971-12.58-5.907-18.885-.492-1.6-1.308-2.628-3.094-2.779-.36-.03-.868-.6-.965-1.007a30.517,30.517,0,0,1-.466-3.3c0-.017.076-.038.11-.065a3.28,3.28,0,0,1,4.863,1.469c.215.722.341,1.47.508,2.207l.161-.032c-.074-.517-.148-1.035-.266-1.865,2.618,5.373,3.473,10.988,5.668,16.149.863,2.029,1.448,4.177,2.132,6.281a306.105,306.105,0,0,1,10.388,42.94c.7,4.094,1.151,8.235,1.651,12.362.243,2.005.236,4.044.524,6.041.388,2.689.261,2.977-2.377,3.412-.378.063-.767.061-1.174.09-.029-.575-.052-1.055-.076-1.536-.431,1.054-1.215,1.869-1.624,2.841a5.118,5.118,0,0,0-.034,2.357c.149,1.428.384,2.848.584,4.271l-.41.052-.4-2.048.113.008v7.135l.333,0V272.43Zm-3.326-58.1c-2.568-12.877-7.566-25.009-11.515-37.92l57.13-2.693.879,38.145C800.9,212.826,785.637,214.123,770.1,215.559Zm46.1,40.417c-6.725.261-13.139.382-19.534.793a86.779,86.779,0,0,0-18.708,2.839c-.971-7.384-1.717-14.7-2.945-21.931-1.232-7.255-2.944-14.427-4.469-21.745,15.19-1.34,30.426-2.663,45.656-2.383Zm-43.121,6.734c1.076-.234,2.079-.389,3.039-.686.478-.148,1.175-.5,1.251-.861.229-1.1,1.026-1.161,1.83-1.344,1.123-.255,2.234-.564,3.361-.795a118.5,118.5,0,0,1,21.369-2.207c6.641-.139,13.284-.246,19.926-.2,3.67.024,7.337.441,11.009.579a140.362,140.362,0,0,1,18.788,1.572,44.541,44.541,0,0,1,8.867,2.907c-.374.565-1.02,1.125-.922,1.48a7.658,7.658,0,0,0,1.382,1.993,78.966,78.966,0,0,1-8.373,2.408,144.817,144.817,0,0,1-15,2.037c-9.139.661-18.3.989-27.458,1.419a2.016,2.016,0,0,1-1.248-.505,5.849,5.849,0,0,0-6.8-.126,1.772,1.772,0,0,1-1.154.383c-6.942-.849-13.892-1.657-20.811-2.669a23.731,23.731,0,0,1-5.921-1.869A5.019,5.019,0,0,1,773.081,262.71Zm31.732,104.861.187-.05c-.12-1.224-.341-2.447-.345-3.671-.021-5.889.057-11.778.024-17.667q-.1-18.281-.285-36.562c-.059-6.826-.152-13.651-.213-20.477-.05-5.627-.065-11.254-.121-16.881-.009-.918.124-1.869,1.111-1.99a22.158,22.158,0,0,1,4.415,0,1.46,1.46,0,0,1,.933,1.04,15.7,15.7,0,0,1-.13,2.673l.189.038.36-2.444.387.008c0,16.5.245,33.006-.069,49.5-.312,16.415.55,32.847-.787,49.252v-2.329c-.109,1,.131,2.314-.4,2.82a5.461,5.461,0,0,1-3.218,1.214,2.476,2.476,0,0,1-1.883-1.367,23.568,23.568,0,0,1-.779-4.166l.453-.072Q804.727,367.006,804.813,367.571ZM862.78,262.253c1.109,0,2.076-.022,3.041,0,2.079.058,2.413.706,2.047,2.8a48.171,48.171,0,0,0-.362,5.484l.159,0q.313-3.82.626-7.641l.451.02c0,.408.016.816,0,1.222-.055,1.191-.175,2.382-.175,3.573,0,1.949.167,3.9.1,5.847-.371,10.445-.844,20.887-1.18,31.334-.26,8.1-.7,16.218-.455,24.31.265,8.665,1.215,17.311,1.923,25.961.251,3.076-.728,4-3.839,3.476-.8-.134-1.48-.238-1.7-1.15-.352-1.451-.812-2.883-1.055-4.351-.31-1.876-.508-3.775-.653-5.672-.411-5.386-1.091-10.776-1.083-16.163.015-10.315.45-20.63.678-30.945.175-7.885.3-15.771.458-23.656a7.294,7.294,0,0,1,.237-1.242l.311.049v5.557c.09-1.195.052-2.39.1-3.583.049-1.233.2-2.421,1.736-2.781.825-.194.981-.826,1-1.633.047-2.479.191-4.957.289-7.435.019-.473,0-.947,0-1.526H862.78Zm-40.122-87.415c4.224-.243,8.2-.523,12.172-.683,2.462-.1,3.713,1.127,3.67,3.634-.055,3.274-.169,6.554-.442,9.817-.439,5.25-.992,10.492-1.571,15.728-.276,2.5-.726,4.985-1.092,7.478a2.031,2.031,0,0,1-1.734,1.761c-3.623.893-7.288.45-11,.522Zm42.015,89.724c0,3,.021,5.868-.03,8.737a1.245,1.245,0,0,1-.669.92,80.488,80.488,0,0,1-18.944,4.519q-12.7,1.132-25.422,2.061c-2.711.195-5.448.031-8.05.031v-9.261c3.209-.167,6.169-.445,9.13-.452a185.833,185.833,0,0,0,28.191-2.215c5.285-.822,10.629-1.466,15.373-4.266A.8.8,0,0,1,864.672,264.562Zm-47.719-8.512-.287-.047a2.459,2.459,0,0,1-.091-.465c-.01-4.073-.031-8.147-.016-12.22q.06-15.613.153-31.225c.024-3.584.25-7.17.176-10.751-.189-9.123-.521-18.242-.741-27.364-.089-3.677.249-3.948,4-3.958.089,0,.177,0,.266,0,1.1-.052,1.561.426,1.581,1.573.071,3.985.133,7.974.376,11.951.234,3.825-.522,7.616-.165,11.446a62.044,62.044,0,0,1-.038,6.22c-.012,1.543,0,3.086,0,4.855l-.638-.876a25.431,25.431,0,0,1,.606,5.032c.021.858-.327,1.724-.31,2.583.065,3.205.286,6.408.309,9.613.03,4.243-.06,8.487-.129,12.73a5.3,5.3,0,0,1-.369,1.275h.428q.029,8.193.02,16.385h-.234l.248-.6v3.839h-3.886c-.038-.671-.072-1.273-.091-1.62L817.9,256.1l-.337,0-.272-.865Zm-1.541-81.9-.015.455-57.248,2.623c.285-.227.4-.4.521-.4Q787.042,175.473,815.413,174.148Zm7.445.182q0-.271,0-.541l10.907-.5c0,.1.009.207.014.311Z" transform="translate(-747.102 -169.563)"/>
    <path id="Pfad_34" data-name="Pfad 34" d="M1123.244,386.173c.617,1.672,1.215,3.352,1.87,5.009.107.271.463.445.717.647a3.359,3.359,0,0,0,.243-.252c-.2-.16-.466-.281-.585-.487a8.687,8.687,0,0,1-.5-1.2q-.735-1.892-1.465-3.786Z" transform="translate(-1103.682 -328.497)"/>
    <path id="Pfad_35" data-name="Pfad 35" d="M1130.508,805.2l.621-4.614-.172-.022q-.4,2.293-.792,4.586Z" transform="translate(-1110.578 -632.689)"/>
    <path id="Pfad_36" data-name="Pfad 36" d="M989.144,600q.035-.7.071-1.4l-.1-.021-.144.674-.328,0a25.036,25.036,0,0,1,.163-7.415,16.607,16.607,0,0,0-.233,8.2Z" transform="translate(-930.884 -479.5)"/>
    <path id="Pfad_37" data-name="Pfad 37" d="M985.455,843.1l-.972-7.36-.266.035q.554,3.665,1.109,7.331Z" transform="translate(-926.075 -658.504)"/>
    <path id="Pfad_38" data-name="Pfad 38" d="M990.461,555.794q.155,3.407.31,6.814l.045,0v-6.795Z" transform="translate(-933.097 -453.039)"/>
    <path id="Pfad_39" data-name="Pfad 39" d="M989.315,679v5.965h.1v-5.927Z" transform="translate(-931.395 -543.464)"/>
    <path id="Pfad_40" data-name="Pfad 40" d="M986.638,807.168l-.571-4.9-.3.037.693,4.875Z" transform="translate(-927.672 -633.94)"/>
    <path id="Pfad_41" data-name="Pfad 41" d="M988.226,723.223v5.732h.125v-5.775Z" transform="translate(-930.039 -575.893)"/>
    <path id="Pfad_42" data-name="Pfad 42" d="M987.494,652.179v-5.652h-.1V652.2Z" transform="translate(-928.96 -519.632)"/>
    <path id="Pfad_43" data-name="Pfad 43" d="M753.253,603.091q.132-2.548.264-5.1l-.147-.008-.338,5.091Z" transform="translate(-632.631 -484.007)"/>
    <path id="Pfad_44" data-name="Pfad 44" d="M770.7,595.705a16.675,16.675,0,0,1,.274,2.7,14.471,14.471,0,0,1-.564,2.514l.487.044q.121-2.627.241-5.255Z" transform="translate(-654.879 -482.331)"/>
    <path id="Pfad_45" data-name="Pfad 45" d="M771.355,650.434v5.661h.066v-5.7Z" transform="translate(-655.41 -522.472)"/>
    <path id="Pfad_46" data-name="Pfad 46" d="M775.864,664.243v5.472l.08,0v-5.418Z" transform="translate(-661.133 -532.635)"/>
    <path id="Pfad_47" data-name="Pfad 47" d="M757.7,732.27q.13-2.739.26-5.478l-.162,0v5.478Z" transform="translate(-638.313 -578.542)"/>
    <path id="Pfad_48" data-name="Pfad 48" d="M940.5,730.262v6.3l.241,0q-.13-3.138-.256-6.283Z" transform="translate(-869.721 -581.09)"/>
  </g>
</svg>
